<svg id="b7ce47e3-a03b-43c9-8d83-7441899a1a74" data-name="Layer 1" xmlns="http://www.w3.org/2000/svg" xmlns:xlink="http://www.w3.org/1999/xlink" viewBox="0 0 4282 4282"><defs><style>.f6315285-ab1b-484f-b59e-3d98e0385d32{fill:#fff;}.b4ed5744-7b66-4ddd-9b61-a18228998bbc{fill:url(#fe6f778a-b28b-4832-a6a3-498c2f2e1c42);}.b53c603e-ef41-4256-a59e-bfafb040f1c6{fill:url(#e5085181-051a-4b02-aacd-a2f56d700250);}.a0375211-625f-443b-a8a9-ceceb3596b2d{fill:url(#a5987eb8-9a4a-4026-9136-9eabea37a919);}.fc0a933d-b50f-44e1-8ca9-14b8f1e66b03{fill:url(#e9c76e5d-63eb-490d-9fef-788a48632460);}.ef7aef1b-3d89-4f26-8cc6-ade725257f03{fill:url(#e305f9ca-d026-4f75-866b-a2a330e59797);}.a3f6490a-22af-4cc4-883a-78850e125c77{fill:url(#b7ef7f8d-a1af-42a1-8b09-c7f52ec3c2fd);}.ab714899-b9c8-4a3b-8e36-e622967f1165{fill:url(#fd3763c1-396c-4a09-92d3-3b7a98798065);}.a4411837-2327-4331-b8f9-f974249a3647{fill:url(#ad9d94f8-7742-4077-b942-87416144e680);}.e6e482bb-c4b9-4170-96e0-f47eb1b31314{fill:url(#bd3565fc-cc07-409b-9ef7-feda041cb997);}.adb444c7-7091-4287-bae4-1d346a238852{fill:url(#f78d6234-1a41-455b-89e2-c0555b8a7e9a);}</style><linearGradient id="fe6f778a-b28b-4832-a6a3-498c2f2e1c42" x1="846.27" y1="2336.76" x2="846.27" y2="3264.28" gradientTransform="matrix(1, 0, 0, -1, 0, 4282)" gradientUnits="userSpaceOnUse"><stop offset="0" stop-color="#fcee21"/><stop offset="0.23" stop-color="#f4e51c"/><stop offset="0.61" stop-color="#ddcb10"/><stop offset="1" stop-color="#bfaa00"/></linearGradient><linearGradient id="e5085181-051a-4b02-aacd-a2f56d700250" x1="1827.83" y1="2336.76" x2="1827.83" y2="3264.28" xlink:href="#fe6f778a-b28b-4832-a6a3-498c2f2e1c42"/><linearGradient id="a5987eb8-9a4a-4026-9136-9eabea37a919" x1="2624.02" y1="2336.76" x2="2624.02" y2="3264.28" xlink:href="#fe6f778a-b28b-4832-a6a3-498c2f2e1c42"/><linearGradient id="e9c76e5d-63eb-490d-9fef-788a48632460" x1="3445.36" y1="2337.14" x2="3445.36" y2="3264.85" xlink:href="#fe6f778a-b28b-4832-a6a3-498c2f2e1c42"/><linearGradient id="e305f9ca-d026-4f75-866b-a2a330e59797" x1="436.07" y1="1131.78" x2="436.07" y2="2041.12" xlink:href="#fe6f778a-b28b-4832-a6a3-498c2f2e1c42"/><linearGradient id="b7ef7f8d-a1af-42a1-8b09-c7f52ec3c2fd" x1="1166.33" y1="1131.69" x2="1166.33" y2="2040.74" xlink:href="#fe6f778a-b28b-4832-a6a3-498c2f2e1c42"/><linearGradient id="fd3763c1-396c-4a09-92d3-3b7a98798065" x1="1809.03" y1="1131.69" x2="1809.03" y2="2040.74" xlink:href="#fe6f778a-b28b-4832-a6a3-498c2f2e1c42"/><linearGradient id="ad9d94f8-7742-4077-b942-87416144e680" x1="2367.8" y1="1131.69" x2="2367.8" y2="2040.74" xlink:href="#fe6f778a-b28b-4832-a6a3-498c2f2e1c42"/><linearGradient id="bd3565fc-cc07-409b-9ef7-feda041cb997" x1="2960.99" y1="1131.69" x2="2960.99" y2="2040.74" xlink:href="#fe6f778a-b28b-4832-a6a3-498c2f2e1c42"/><linearGradient id="f78d6234-1a41-455b-89e2-c0555b8a7e9a" x1="3779.44" y1="1131.78" x2="3779.44" y2="2041.12" xlink:href="#fe6f778a-b28b-4832-a6a3-498c2f2e1c42"/></defs><rect class="f6315285-ab1b-484f-b59e-3d98e0385d32" x="0.15" width="4281.7" height="4282"/><path class="b4ed5744-7b66-4ddd-9b61-a18228998bbc" d="M450.47,1480.35q0,31.07-31.16,31.16t-31.17-31.16q0-31.17,31.17-31.17T450.47,1480.35Zm5.78,78.43q0,31.15-31.17,31.16t-31.16-31.16q0-31.08,31.16-31.17T456.25,1558.78Zm1.13-154.59q0,31.15-31.16,31.16t-31.16-31.16q0-31.07,31.16-31.17T457.38,1404.19Zm19.61,233q0,31.07-31.16,31.16t-31.17-31.16q0-31.17,31.17-31.17T477,1637.21Zm2.27-312.59c0,20.75-10.32,31.07-31.16,31.07s-31.54-10.32-31.54-31.07,10.42-31.16,31.16-31.16S479.26,1303.78,479.26,1324.62Zm34.58,387.61q0,31.15-31.07,31.16c-20.84,0-31.16-10.42-31.16-31.16s10.32-31.45,31.25-31.45S513.84,1691.48,513.84,1712.23Zm1.23-460.36c0,20.84-10.42,31.17-31.16,31.17s-31.17-10.33-31.17-31.17,10.42-31.06,31.17-31.06S515.07,1231.13,515.07,1251.87Zm13.83,230.75q0,31.16-31.16,31.16t-31.17-31.16q0-31.06,31.17-31.17T528.9,1482.62Zm6.91-79.57q0,31.46-31.16,31.45t-31.26-31.45q0-31.07,31.17-31.16T535.81,1403.05Zm4.65,156.86q0,31.06-31.17,31.17t-31.16-31.17q0-30.69,31.16-30.69T540.46,1559.91Zm20.74,214.55c0,20.84-10.42,31.16-31.16,31.16s-31.17-10.32-31.17-31.16,10.42-31.07,31.17-31.07S561.2,1753.71,561.2,1774.46Zm0-586c0,20.84-10.42,31.16-31.16,31.16s-30-10.32-30-31.35,10-31.07,30-31.07,31.16,10.52,31.16,31.07Zm1.14,452.3q0,31.07-31.17,31.16T500,1640.71c0-20.84,10.42-31.16,31.16-31.16S562.34,1619.87,562.34,1640.71Zm0-317.32c0,20.84-10,31.16-30,31.16s-31.07-10.32-31.07-31.16,10-31,31.07-31S562.34,1302.65,562.34,1323.39Zm40.35,380.69c0,20.84-10.33,31.16-31.17,31.16s-31.06-10.32-31.06-31.16S550.78,1673,571.52,1673,602.69,1683.34,602.69,1704.08Zm2.37-222.22q0,31.07-31.17,31.16t-31.16-31.16q0-31.06,31.16-31.16T605.06,1481.86ZM606,1260q0,31.17-31.16,31.07t-30-31.07c0-20.84,10-31.16,30-31.16S606,1239.18,606,1260Zm5.78,293q0,31.15-31.16,31.16T549.45,1553q0-31.08,31.17-31.17T612,1553Zm3.7-150c0,20.75-10.42,31.45-31.26,31.45s-31.07-10.42-31.07-31.16,10.32-31.17,31.07-31.17S615.48,1382.31,615.48,1403.05Zm3.5,423.41q0,31.07-31.16,31.07t-31.17-31.07c0-20.08,10.42-30,31.17-30s31.07,10,31.07,30ZM620.12,1135q0,31.07-31.17,31.16t-31.25-30.78q0-31.08,31.16-31.17T620,1135.37Zm18.47,492.55q0,31.08-31.17,31.17t-31.16-31.17c0-20.84,10.42-31.16,31.16-31.16s31.07,10.8,31.07,31.64Zm9.47-298.85c0,20.84-10.32,31.17-31.16,31.17s-31.07-10.33-31.07-31.17,10.32-31.06,31.07-31.06,30.78,10.79,30.78,31.54Zm12.69-128.06c0,20.84-10.32,31.16-31.16,31.16s-31.07-10.32-31.07-31.16,10.33-31.07,31.07-31.07,30.78,10.8,30.78,31.54Zm0,560.66c0,20.84-10.32,31.17-31.16,31.17s-31.07-10.33-31.07-31.17,10.33-31.07,31.07-31.07,30.78,10.8,30.78,31.55Zm25.39,107.32c0,20.75-10.33,31.17-31.16,31.17s-31.07-10.42-31.07-31.17,10.32-31.16,31.07-31.16,30.78,10.89,30.78,31.64Zm.76-775.11q0,31.15-31.07,31.16c-20.84.38-30.88-10-30.88-31.16s10.32-31.17,31.16-31.17S686.9,1073.13,686.9,1093.5Zm3.5,593q0,31.07-31.16,31.16t-31.17-31.16q0-31.07,31.17-31.16t31.16,31.54Zm8.05-416.78c0,20.75-10.32,31.17-31.16,31.17s-31.07-10.42-31.07-31.17,10.32-31.16,31.07-31.16,31.16,11.08,31.16,31.83Zm25.39-108.46c0,20.84-10.42,31.17-31.17,31.17s-31.16-10.33-31.16-31.17,10.42-31.06,31.16-31.06,31.17,10.7,31.17,31.73Zm2.27,641.47q0,31.07-31.07,31.16c-20.84,0-31.16-10.42-31.16-31.16s10.32-31.17,31.16-31.17,31.07,11.08,31.07,31.83ZM753.87,1730q0,31.08-31.17,31.07t-31.45-30.4c0-20.84,10.42-31.17,31.17-31.17s31.45,10.33,31.45,31.17Zm4.54-664.95c0,20.84-9.94,31.17-29.93,31.17s-31.16-10.42-31.16-31.17S707.74,1034,728.48,1034,758.41,1044.24,758.41,1065.08Zm1.23,833q0,31.07-31.16,31.07t-31.16-31.07c0-20.84,10.42-31.16,31.16-31.16s31.16,10.23,31.16,31.07Zm8.06-672c0,20.84-10.42,31.16-31.17,31.16s-31.16-9.94-31.16-31.16S715.79,1195,736.53,1195,767.7,1205.74,767.7,1226.11Zm27.75-90.74c0,20.74-10.33,31.16-31.17,31.16s-31.06-10.42-31.06-31.16,10.32-31.17,31.06-31.17S795.45,1114.62,795.45,1135.37Zm9.47,693.36q0,31.08-31.16,31.17t-31.17-31.17q0-31.07,31.17-31.16T804.92,1828.73Zm23-73.88c0,20.84-10.33,31.16-31.17,31.16s-31.35-10.51-31.35-31.16,10.33-31.07,31.07-31.07,31.16,10.33,31.16,31.07Zm10.42,159.23q0,31.07-31.17,31.16T776,1914.08q0-31.07,31.16-31.16t30.88,31.16ZM841.77,1050q0,31.07-31.07,31.16c-20.84,0-31.16-10.42-31.16-31.16s10-31.16,30.87-31.16,31.07,10.42,31.07,31.16Zm5.78,154.59c0,20.74-10.33,31.16-31.17,31.16s-31.07-10.42-31.07-31.16,10.33-31.17,31.07-31.17,30.88,10.42,30.88,31.17Zm27.75-78.43q0,31.15-31.16,31.16T813,1126.18q0-31.08,31.17-31.17T875,1126.18Zm4.55,710.42q0,31.07-29.94,31.16c-20.83,0-31.16-10.42-31.16-31.16s10.33-31.17,31.16-31.17,29.65,10.61,29.65,31.36Zm27.75-78.43q0,31.07-31.16,31.16c-20.84,0-31.17-10.42-31.17-31.16S855.6,1727,876.44,1727s30.88,10.61,30.88,31.36Zm5.68,154.58q0,31.08-31.07,31.17c-20.83,0-31.16-10.42-31.16-31.17s10.33-31.16,31.16-31.16S913,1892.2,913,1912.94Zm3.51-864.06q0,31.17-31.17,31.17t-31.44-31q0-31.16,31.16-31.16t31.16,31.16Zm10.13,158.48c0,20.83-10.42,31.16-31.16,31.16s-31.16-10.61-31.16-31.16,10.42-31.07,31.16-31.07S926.92,1186.14,926.92,1207.17Zm23-73.79q0,31.15-29.93,31.16c-20.84,0-31.16-10.42-31.16-31.16s10.79-31.45,31.16-31.45,29.93,10.51,29.93,31.16Zm9.47,694.5q0,31.06-31.16,31.17T896.9,1827.6c0-20.84,10.42-31.17,31.16-31.17s31.16,10.33,31.16,31.17Zm28.42-91.12q0,31.07-31.16,31.07t-31.17-31.07c0-20.84,10.42-31.16,31.17-31.16s31.35,10,31.35,30.87Zm7.1-671.68c0,20.84-10.32,31.17-31.16,31.17s-31.16-10.42-31.16-31.17S943,1034,963.77,1034,994.93,1044.24,994.93,1065.08Zm1.14,831.76c0,20.84-10.32,31.16-31.07,31.16s-31.16-10.42-31.16-31.25,10.32-31.07,31.16-31.07,31.07,10.32,31.07,31.07Zm4.64-664.48c0,20.84-10.42,31.17-31.16,31.17s-31.17-10.33-31.17-31.17,10.42-31.16,31.17-31.16,31.16,10.32,31.16,31.07Zm27.66-72.56q0,31.17-31.07,31.17c-20.84,0-31.16-10.42-31.16-31.17s10.32-31.16,31.16-31.16S1028.37,1138.87,1028.37,1159.8Zm2.37,641.46q0,31.08-31.16,31.07t-30-31.25c0-20.84,10-31.17,30-31.17s31.16,10.33,31.16,31.17Zm25.39-108.45q0,31.07-31.17,31.16t-31.16-31.16q0-31.08,31.16-31.17t31.17,31Zm8-416.78q0,31.07-31.17,31.16T1001.85,1276q0-31.17,31.16-31.17t31.17,31.26Zm4.64-182.53q0,31.15-31.17,31.16t-31.16-31.16q0-31.07,31.16-31.17T1068.82,1093.5Zm-1.23,775.21q0,31.07-29.94,31.16t-31.16-31.16q0-31.08,31.16-31.17t29.94,31.55Zm26.61-668c0,20.84-10.42,31.17-31.16,31.17s-30.79-10-30.79-30.79,10.33-31.07,31.17-31.07,30.78,10.33,30.78,31.07Zm0,559.53q0,31.07-31.16,31.16c-20.84,0-31.16-10.42-31.16-31.16s10.32-31.16,31.16-31.16,31.16,10.79,31.16,31.54Zm12.7-126.83q0,31.07-31.17,31.07c-20.84,0-31.16-10.33-31.16-31.07s10.32-31.17,31.16-31.17S1106.9,1613,1106.9,1633.42Zm9.47-298.85q0,31.07-31.17,31.16T1054,1334.57q0-31.17,31.16-31.17t30.88,31.55Zm18.94,492.55q0,31.08-31.16,31.17t-31.92-30.69c0-20.84,10.42-31.17,31.16-31.17s31.17,10.33,31.17,31.17Zm1.14-692.23q0,31.06-31.16,31.17t-31.17-31.17q0-31.07,31.17-31.16t30.4,31.64Zm3.5,423.41q0,31.17-31.16,31.17c-20.84,0-31.16-10.42-31.16-31.17s9.56-29.08,30.4-29.08,31.17,9.47,31.17,29.56Zm3.41-148.81q0,31.17-31.16,31.17T1081,1409.49q0-31.07,31.16-31.16t30.41,31.64Zm5.78,293c0,20.84-10.42,31.16-31.16,31.16s-31.16-10.32-31.16-31.16,10.41-31.07,31.16-31.07,30.4,10.8,30.4,31.54Zm.38-220.61c0,20.74-10.32,31.16-31.16,31.16s-31.17-10.79-31.17-31.16,10.42-31.16,31.17-31.16S1149.52,1460.74,1149.52,1481.86Zm2.27-222.69c0,20.84-10.32,31.16-31.06,31.16s-31.17-10.32-31.17-31.16,10.33-31.07,31.17-31.07,31.06,9.94,31.06,30.69Zm40.45,63.46q0,31.17-31.16,31.17t-31.17-31.17q0-31.07,31.17-31.16t31.16,30.78Zm0,316.09c0,20.84-10.42,31.16-31.16,31.16s-31.17-10.32-31.17-31.16,10.42-31.16,31.17-31.16,31.16,10,31.16,30.78Zm1-450.5c0,20.84-10.42,31.16-31.16,31.16s-31.07-10.13-31.07-31.16,10.42-31.07,31.16-31.07S1193.28,1167.67,1193.28,1188.22Zm0,584.91q0,31.06-31.16,31.17T1131,1773.13q0-31.07,31.16-31.16t31.16,31.35Zm20.84-371.22c0,20.75-10.32,31.07-31.16,31.07s-31.17-10.32-31.17-31.07,10.42-31.16,31.17-31.16S1214.12,1381.08,1214.12,1401.91Zm4.64,156.87q0,31.15-31.16,31.16t-31.16-31.16q0-31.08,31.16-31.17T1218.76,1558.78Zm6.92-78.43q0,31.07-31.17,31.16t-31.16-31.16q0-31.17,31.16-31.17T1225.68,1480.35Zm13.83,230.74q0,31.07-31.17,31.07t-31.16-31.07c0-20.84,10.42-31.16,31.16-31.16S1239.51,1690.25,1239.51,1711.09Zm1.13-460.35c0,20.74-10.32,31.16-31.16,31.16s-31.07-10.42-31.07-31.16,10.33-31.17,31.07-31.17S1240.64,1230,1240.64,1250.74Zm34.67,387.6c0,20.84-10.42,31.17-31.16,31.17s-31.16-10.33-31.16-31.17,10.42-31.16,31.16-31.16S1275.31,1617.6,1275.31,1638.34Zm2.28-312.58q0,31.07-31.17,31.16t-31.16-31.16q0-31.17,31.16-31.17T1277.59,1325.76Zm19.89,233q0,31.15-31.17,31.16t-31.16-31.16q0-31.08,31.16-31.17T1297.48,1558.78Zm1.13-154.59c0,20.74-10.32,31.16-31.16,31.16s-31.35-10.32-31.35-31.16,10.32-31.17,31.07-31.17,31.16,10.42,31.16,31.17Zm5.78,78.43q0,31.16-31.16,31.16t-31.16-31.16q0-31.06,31.16-31.17t30.88,31.17Z"/><path class="b53c603e-ef41-4256-a59e-bfafb040f1c6" d="M1462.2,1073.13q0,32.2-32.3,32.3t-32.4-32.3c0-21.59,10.8-32.3,32.4-32.3S1462.2,1051.54,1462.2,1073.13Zm0,80.71c0,21.59-10.8,32.3-32.3,32.3s-32.4-10.71-32.4-32.3,10.8-31.92,32.59-31.92S1462.2,1132.33,1462.2,1153.84Zm0,80.79q0,32.31-32.3,32.31t-32.4-32.31c0-21.59,10.8-32.3,32.4-32.3S1462.2,1213,1462.2,1234.63Zm0,79.57q0,32.21-32.3,32.3t-32.4-32.3q0-32.21,32.4-32.3T1462.2,1314.2Zm0,80.8q0,32.3-32.3,32.3t-32.4-32.3c0-21.6,10.8-32.3,32.4-32.3S1462.2,1373.4,1462.2,1395Zm0,80.7q0,32.21-32.3,32.3t-32.4-32.3q0-32.29,32.4-32.3T1462.2,1475.7Zm0,80.8q0,32.2-32.3,32.3t-32.4-32.3c0-21.59,10.8-32.3,32.4-32.3S1462.2,1534.91,1462.2,1556.5Zm0,80.71c0,21.59-10.8,32.3-32.3,32.3s-32.4-10.71-32.4-32.3,10.8-32.21,32.59-32.21S1462.2,1615.7,1462.2,1637.21Zm0,79.56c0,21.6-10.8,32.3-32.3,32.3s-32.4-10.7-32.4-32.3,10.8-32.3,32.4-32.3S1462.2,1695.27,1462.2,1716.77Zm0,80.8q0,32.21-32.3,32.3t-32.4-32.3q0-32.21,32.4-32.3T1462.2,1797.57Zm0,80.8q0,32.2-32.3,32.3t-32.4-32.3c0-21.6,10.8-32.3,32.4-32.3S1462.2,1856.77,1462.2,1878.37ZM1544,1073.23q0,32.2-32.3,32.3t-32.3-32.3c0-21.6,10.8-32.3,32.3-32.3s32,10.61,32,32.2Zm0,80.7c0,21.6-10.8,32.3-32.3,32.3s-32.3-10.7-32.3-32.3,10.8-32,32.3-32,32,10.41,32,31.92Zm0,80.8q0,32.3-32.3,32.3t-32.3-32.3c0-21.6,10.8-32.3,32.3-32.3s32,10.61,32,32.2Zm0,79.57q0,32.21-32.3,32.3t-32.3-32.3q0-32.21,32.3-32.3t32,32.2Zm0,80.79q0,32.31-32.3,32.31t-32.3-32.31c0-21.59,10.8-32.3,32.3-32.3s32,10.61,32,32.21Zm0,80.71q0,32.21-32.3,32.3t-32.3-32.3q0-32.31,32.3-32.3t32,32.2Zm0,80.8q0,32.2-32.3,32.3t-32.3-32.3c0-21.6,10.8-32.3,32.3-32.3s32,10.61,32,32.2Zm0,80.7c0,21.6-10.8,32.3-32.3,32.3s-32.3-10.7-32.3-32.3,10.8-32.3,32.3-32.3,32,10.7,32,32.21Zm0,79.57c0,21.59-10.8,32.3-32.3,32.3s-32.3-10.71-32.3-32.3,10.8-32.3,32.3-32.3,32,10.7,32,32.2Zm0,80.8q0,32.2-32.3,32.3t-32.3-32.3q0-32.22,32.3-32.3t32,32.2Zm0,80.79q0,32.2-32.3,32.3t-32.3-32.3c0-21.59,10.8-32.3,32.3-32.3s32,10.61,32,32.21ZM1626,1073.32q0,32.21-32.3,32.3t-32.31-32.3c0-21.59,10.8-32.3,32.31-32.3s32.3,10.52,32.3,32.11Zm0,80.71c0,21.59-10.8,32.3-32.3,32.3s-32.31-10.71-32.31-32.3,10.8-32.11,32.31-32.11,32.3,10.41,32.3,31.92Zm0,80.79q0,32.31-32.3,32.3t-32.31-32.3c0-21.59,10.8-32.3,32.31-32.3s32.3,10.52,32.3,32.11Zm0,79.57q0,32.2-32.3,32.3t-32.31-32.3q0-32.21,32.31-32.3t32.3,32.11Zm0,80.8q0,32.3-32.3,32.3t-32.31-32.3c0-21.6,10.8-32.3,32.31-32.3S1626,1373.4,1626,1395Zm0,80.7q0,32.2-32.3,32.3t-32.31-32.3q0-32.3,32.31-32.3t32.3,32.11Zm0,80.8q0,32.2-32.3,32.3t-32.31-32.3c0-21.6,10.8-32.3,32.31-32.3s32.3,10.52,32.3,32.11Zm0,80.7c0,21.6-10.8,32.31-32.3,32.31s-32.31-10.71-32.31-32.31,10.8-32.39,32.31-32.39,32.3,10.7,32.3,32.21Zm0,79.57c0,21.6-10.8,32.3-32.3,32.3s-32.31-10.7-32.31-32.3,10.8-32.3,32.31-32.3,32.3,10.61,32.3,32.11Zm0,80.8q0,32.21-32.3,32.3t-32.31-32.3q0-32.21,32.31-32.3t32.3,32.11Zm0,80.8q0,32.2-32.3,32.3t-32.31-32.3c0-21.6,10.8-32.3,32.31-32.3s32.3,10.51,32.3,32.11Zm56.83-763.75q0,28.43-30,28.42t-28.41-28.42q0-30,28.41-30t29.74,29.84Zm9.47,138.49q0,29.92-29.93,29.93c-18.95,0-28.89-10-28.89-29.93s9.47-28.9,28.89-28.9,29.36,9.48,29.36,28.71Zm-26.52-58.92c0,9.47-5,13.92-15,13.92s-15.06-4.64-15.06-13.92a15.06,15.06,0,0,1,30,0Zm0,117.74c0,9.47-5,13.83-15,13.83s-15.06-4.64-15.06-13.83a15.06,15.06,0,1,1,30-2.39A15.89,15.89,0,0,1,1665.76,1312.12Zm17.33,62.23c0,15.44-8.14,23.11-24.25,23.11a20.36,20.36,0,0,1-23.11-23.11c0-16.1,7.67-24.15,23.11-24.15a21.37,21.37,0,0,1,23.68,24Zm49.54-199.58c0,20.08-9.47,30-28.41,30s-30-10-30-30,10-28.42,30-28.42,27.84,9,27.84,28.23Zm5.78,264.18q0,28.42-29.93,28.42a25.56,25.56,0,0,1-28.89-28.42q0-29.92,28.89-29.93t29.36,29.74Zm3.51-124.56q0,28.42-30,28.42t-28.42-28.42q0-29.92,28.42-30t29.46,29.84Zm34.57-75.78q0,28.42-28.42,28.42c-20.08,0-30-9.47-30-28.42s9.47-29.93,30-29.93,27.85,9.38,27.85,29.36Zm5.78,267.69a25.48,25.48,0,0,1-22.16,28.42,26.22,26.22,0,0,1-6.26,0c-20.08,0-30-9.48-30-28.42s10-30,30-30,27.85,9.47,27.85,29.46Zm3.5-129.2q0,29.93-28.89,29.93T1727,1377.1q0-28.42,29.93-28.89a25.57,25.57,0,0,1,28.32,22.49,24.72,24.72,0,0,1,0,5.83Zm41.49-78.43q0,29.92-30,29.93t-28.41-29.93q0-28.43,28.41-28.89t29.46,28.32Zm4.64,272.23q0,28.41-28.89,28.42t-28.41-28.42q0-30,28.41-30t28.32,29.46Zm3.41-132.61q0,28.41-28.41,28.89t-30-28.89q0-29.94,30-29.93t27.84,29.27Zm35.81-75.78q0,28.41-30,28.89t-28.42-28.89q0-29.92,28.42-29.93t29.46,28.89Zm5.78,271.1c0,20.08-10.05,30-30,30s-28.42-9.47-28.42-30a25.48,25.48,0,0,1,22.16-28.42,25.22,25.22,0,0,1,6.26,0c19.42-1.42,29.46,8.24,29.46,27.37Zm3.41-132.62q0,30-29.94,29.94T1821.48,1501a25.59,25.59,0,0,1,22.31-28.47,25.88,25.88,0,0,1,6.58.06q29.37-1.51,29.37,27.37Zm40.44-78.43q0,29.94-28.89,29.94t-30-29.94q0-28.41,30-28.89a25.58,25.58,0,0,1,28.28,22.56,25.28,25.28,0,0,1,0,5.29Zm5.69,275.65c0,20.08-10,30-29.94,30s-28.89-9.94-28.89-30,9.47-28.42,28.89-28.42,29.37,8.24,29.37,27.37Zm3.5-136.12q0,28.42-30,28.42t-28.41-28.42q0-29.92,28.41-29.93t29.46,28.89Zm39.22-72.65c0,20-9.48,30-28.42,30s-30-10-30-30,10-28.42,30-28.42a25.48,25.48,0,0,1,27.81,22.92,26.56,26.56,0,0,1,0,4.46Zm5.77,276.87q0,28.43-30,28.42t-28.42-28.42q0-30,28.42-30t29.46,29Zm3.51-137.25q0,28.41-30,28.42T1920,1629.06q0-30,28.42-30t29.46,29Zm40.35-78.43q0,28.41-28.89,28.42T1960,1550.63c-.57-21.41,9.37-30.88,29-30.88s29.27,9.47,29.27,29.84Zm1.14,143q0,28.41-30,28.42t-28.42-28.42q0-28.41,28.42-28.42t29.46,27.38Zm4.64,137.25a25.56,25.56,0,0,1-28.42,28.89q-30,0-29.93-28.89t29.93-30q27.86-1,27.85,29Zm-3.51-210a15,15,0,1,1-15.53-15.91,13.26,13.26,0,0,1,15,11.32,12.79,12.79,0,0,1,0,3.55Zm0,146.54a15,15,0,1,1-15-15,13.27,13.27,0,0,1,14.35,12.07,12.19,12.19,0,0,1,0,1.48Zm72.09-694.32c0,21.5-10.71,32.3-32.3,32.3s-32.3-10.8-32.3-32.3,10.79-32.3,32.3-32.3S2093.15,1051.54,2093.15,1073.13Zm0,80.71c0,21.59-10.71,32.3-32.3,32.3s-32.3-10.71-32.3-32.3,10.79-31.92,32.3-31.92S2093.15,1132.33,2093.15,1153.84Zm0,80.79c0,21.51-10.71,32.31-32.3,32.31s-32.3-10.8-32.3-32.31,10.79-32.3,32.3-32.3S2093.15,1213,2093.15,1234.63Zm0,79.57c0,21.5-10.71,32.3-32.3,32.3s-32.3-10.8-32.3-32.3,10.79-32.3,32.3-32.3S2093.15,1292.42,2093.15,1314.2Zm0,80.8c0,21.5-10.71,32.3-32.3,32.3s-32.3-10.8-32.3-32.3,10.79-32.3,32.3-32.3S2093.15,1373.4,2093.15,1395Zm0,80.7c0,21.51-10.71,32.3-32.3,32.3s-32.3-10.79-32.3-32.3,10.79-32.3,32.3-32.3S2093.15,1454.2,2093.15,1475.7Zm0,80.8c0,21.5-10.71,32.3-32.3,32.3s-32.3-10.8-32.3-32.3,10.79-32.3,32.3-32.3S2093.15,1534.91,2093.15,1556.5Zm0,80.71c0,21.59-10.71,32.3-32.3,32.3s-32.3-10.71-32.3-32.3,10.79-32.21,32.3-32.21S2093.15,1615.7,2093.15,1637.21Zm0,79.56c0,21.6-10.71,32.3-32.3,32.3s-32.3-10.7-32.3-32.3,10.79-32.3,32.3-32.3S2093.15,1695.27,2093.15,1716.77Zm0,80.8c0,21.5-10.71,32.3-32.3,32.3s-32.3-10.8-32.3-32.3,10.79-32.3,32.3-32.3S2093.15,1776.07,2093.15,1797.57Zm0,80.8c0,21.5-10.71,32.3-32.3,32.3s-32.3-10.8-32.3-32.3,10.79-32.3,32.3-32.3S2093.15,1856.77,2093.15,1878.37Zm83.07-805.14c0,21.5-10.7,32.3-32.3,32.3s-31.83-10.9-31.83-32.4,10.8-32.3,32.3-32.3,31.83,10.71,31.83,32.3Zm0,80.7c0,21.6-10.7,32.3-32.3,32.3s-31.83-10.8-31.83-32.39,10.33-31.92,31.83-31.92,32.3,10.41,32.3,31.92Zm0,80.8c0,21.5-10.7,32.3-32.3,32.3s-31.83-10.89-31.83-32.4,10.8-32.3,32.3-32.3,31.83,10.71,31.83,32.3Zm0,79.57c0,21.5-10.7,32.3-32.3,32.3s-31.83-10.9-31.83-32.4,10.8-32.3,32.3-32.3,31.83,10.52,31.83,32.3Zm0,80.79c0,21.51-10.7,32.31-32.3,32.31s-31.83-10.9-31.83-32.4,10.8-32.3,32.3-32.3,31.83,10.7,31.83,32.3Zm0,80.71c0,21.5-10.7,32.3-32.3,32.3s-31.83-10.89-31.83-32.4,10.8-32.3,32.3-32.3,31.83,10.8,31.83,32.3Zm0,80.8c0,21.5-10.7,32.3-32.3,32.3s-31.83-10.9-31.83-32.4,10.8-32.3,32.3-32.3,31.83,10.71,31.83,32.3Zm0,80.7c0,21.6-10.7,32.3-32.3,32.3s-31.83-10.8-31.83-32.39,10.33-32.21,31.83-32.21,32.3,10.7,32.3,32.21Zm0,79.57c0,21.59-10.7,32.3-32.3,32.3s-31.83-10.8-31.83-32.4,10.8-32.3,32.3-32.3,31.83,10.8,31.83,32.3Zm0,80.8c0,21.5-10.7,32.3-32.3,32.3s-31.83-10.9-31.83-32.4,10.8-32.3,32.3-32.3,31.83,10.8,31.83,32.3Zm0,80.79c0,21.51-10.7,32.3-32.3,32.3s-31.83-10.89-31.83-32.39,10.8-32.3,32.3-32.3,31.83,10.7,31.83,32.3Zm81.93-805.14q0,32.21-32.3,32.3t-32.3-32.49c0-21.59,10.8-32.3,32.3-32.3s32.3,10.71,32.3,32.3Zm0,80.71c0,21.59-10.79,32.3-32.3,32.3s-32.3-10.71-32.3-32.3,10.8-32.11,32.21-32.11,32.39,10.41,32.39,31.92Zm0,80.79q0,32.31-32.3,32.3t-32.3-32.49c0-21.59,10.8-32.3,32.3-32.3s32.3,10.71,32.3,32.3Zm0,79.57q0,32.2-32.3,32.3t-32.3-32.49q0-32.21,32.3-32.3t32.3,32.3Zm0,80.8q0,32.3-32.3,32.3t-32.3-32.3c0-21.6,10.8-32.3,32.3-32.3s32.3,10.51,32.3,32.11Zm0,80.7q0,32.2-32.3,32.3t-32.3-32.3q0-32.3,32.3-32.3t32.3,32.11Zm0,80.8q0,32.2-32.3,32.3t-32.3-32.3c0-21.6,10.8-32.3,32.3-32.3s32.3,10.52,32.3,32.11Zm0,80.7c0,21.6-10.79,32.31-32.3,32.31s-32.3-10.71-32.3-32.31,10.8-32.39,32.21-32.39,32.39,10.7,32.39,32.21Zm0,79.57c0,21.6-10.79,32.3-32.3,32.3s-32.3-10.7-32.3-32.3,10.8-32.3,32.3-32.3,32.3,10.61,32.3,32.11Zm0,80.8q0,32.21-32.3,32.3t-32.3-32.3q0-32.21,32.3-32.3t32.3,32.11Zm0,80.8q0,32.2-32.3,32.3t-32.3-32.3c0-21.6,10.8-32.3,32.3-32.3s32.3,10.51,32.3,32.11Z"/><path class="a0375211-625f-443b-a8a9-ceceb3596b2d" d="M2395.41,1071.9c0,21.6-10.33,32.3-31.17,32.3s-32.3-10.7-32.3-32.3,10.8-32.3,32.3-32.3S2395.41,1050.4,2395.41,1071.9Zm-37.89,94.72a22.46,22.46,0,0,1-25.58-25.76c0-16.1,8.53-24.25,25.39-24.25a21.41,21.41,0,0,1,24.25,18.13,21.63,21.63,0,0,1,0,6.12c0,17.24-8,25.67-24.25,25.67Zm37.89,48.5c0,20.75-10.33,31.07-31.17,31.07s-32.3-10.32-32.3-31.07,10.8-32.3,32.3-32.3,31.17,10.61,31.17,32.21Zm32.3-48.5c-16.11,0-24.16-8.43-24.16-25.38a21.4,21.4,0,0,1,24.16-24.25c16.95,0,25.38,8.15,25.38,24.25a22.45,22.45,0,0,1-25.38,25.29Zm56.83-94.72c0,21.6-10.8,32.3-32.3,32.3s-32.58-10.7-32.58-32.3,10.79-32.3,32.3-32.3,32.3,10.8,32.3,32.3Zm0,143.13q0,31.15-32.3,31.07t-32.3-31.07c0-21.6,10.8-32.3,32.3-32.3s32,10.7,32,32.3Zm20.74-48.5c-16.1,0-24.15-8.43-24.15-25.39a24.25,24.25,0,1,1,47.74-.28c0,17.24-7.67,25.67-23.87,25.67Zm69.25-94.72c0,21.59-10.8,32.3-32.3,32.3s-32.3-10.61-32.3-32.21,10.79-32.3,32.3-32.3,32,10.8,32,32.3Zm0,143.12q0,31.17-32.3,31.07t-32.3-31c0-21.6,10.79-32.3,32.3-32.3s32,10.7,32,32.3Zm0,83.07q0,32.31-32.3,32.21t-32.3-32.11c0-20.84,10.79-31.16,32.3-31.16s32,10.32,32,31.16Zm0,84.21q0,32.2-32.3,32.3t-32.3-32.2c0-21.6,10.79-32.3,32.3-32.3s32,10.7,32,32.3Zm0,84.21q0,31.07-32.3,31.07t-32.3-31c0-21.6,10.79-32.3,32.3-32.3s32,10.7,32,32.3Zm0,83.07q0,32.31-32.3,32.3t-32.3-32.2c0-20.84,10.79-31.17,32.3-31.17s32,10.8,32,31.17Zm0,80.71q0,31.07-32.3,31.16t-32.3-31.07q0-32.3,32.3-32.3t32,32.3Zm0,79.56c0,20.84-10.8,31.17-32.3,31.17s-32.3-10.23-32.3-31.07,10.79-32.3,32.3-32.3,32,10.8,32,32.3Zm0,83.07c0,21.6-10.8,32.31-32.3,32.31s-32.3-10.61-32.3-32.21,10.79-31.16,32.3-31.16,32,10.42,32,31.16Zm0,84.21c0,21.6-10.8,32.3-32.3,32.3s-32.3-10.7-32.3-32.2,10.79-32.3,32.3-32.3,32,10.8,32,32.3Zm8-710.42a22.45,22.45,0,0,1-25.29-25.76c0-16.1,8.52-24.25,25.38-24.25a21.39,21.39,0,0,1,23.87,24.25c0,17.24-8.05,25.67-24.25,25.67Zm72.75-94.72c0,21.6-10.8,32.3-32.31,32.3s-31.44-10.7-31.44-32.3,10.32-32.3,31.16-32.3,32.3,10.8,32.3,32.3Zm0,143.13q0,31.15-32.31,31.07c-20.83,0-31.16-10.33-31.16-31.07s10.33-32.3,31.16-32.3,32,10.7,32,32.3Zm0,83.07q0,32.3-32.31,32.2c-20.83,0-31.16-10.7-31.16-32.2s10.33-31.16,31.16-31.16,32,10.32,32,31.16Zm0,84.21q0,32.2-32.31,32.3c-20.83,0-31.16-10.8-31.16-32.3s10.33-32.3,31.16-32.3,32,10.7,32,32.3Zm0,84.21q0,31.07-32.31,31.06c-20.83,0-31.16-10.32-31.16-31.06s10-32,30.88-32,32.3,10.42,32.3,32Zm0,83.07q0,32.29-32.31,32.3c-20.83,0-31.16-10.8-31.16-32.3s10.33-31.17,31.16-31.17,32,10.8,32,31.17Zm0,80.7q0,31.07-32.31,31.16c-20.83,0-31.16-10.42-31.16-31.16s10.33-32.3,31.16-32.3,32,10.8,32,32.3Zm0,79.57c0,20.84-10.8,31.16-32.31,31.16s-31.16-10.32-31.16-31.16,10.33-32.3,31.16-32.3,32,10.8,32,32.3Zm0,83.07c0,21.6-10.8,32.3-32.31,32.3s-31.16-10.7-31.16-32.3,10.33-31.16,31.16-31.16,32,10.42,32,31.16Zm0,84.21c0,21.59-10.8,32.3-32.31,32.3s-31.16-10.71-31.16-32.3,10.33-32.3,31.16-32.3,32,10.8,32,32.3Zm3.41-710.42c-16.11,0-24.25-8.43-24.25-25.39a24.25,24.25,0,0,1,48.49,0c-.28,16.77-8.33,25.2-24.53,25.2ZM2736,1072c0,21.59-10.42,32.3-31.16,32.3s-32.59-10.8-32.59-32.4,10.8-32.3,32.3-32.3,31.16,10.8,31.16,32.3Zm0,143.12q0,31.17-31.16,31.07t-32.31-31.07c0-21.59,10.8-32.3,32.31-32.3s30.87,10.61,30.87,32.21Zm0,83.07q0,32.31-31.16,32.21t-32.31-32.21c0-20.84,10.8-31.16,32.31-31.16s30.87,10.23,30.87,31.07Zm0,84.21q0,32.2-31.16,32.3t-32.31-32.3c0-21.59,10.8-32.3,32.31-32.3s30.87,10.61,30.87,32.21Zm0,84.21q0,31.07-31.16,31.07t-32.31-31.07c0-21.6,10.8-32.3,32.31-32.3s30.87,10.61,30.87,32.21Zm0,83.07q0,32.31-31.16,32.3t-32.31-32.3c0-20.84,10.8-31.16,32.31-31.16s30.87,10.7,30.87,31.07Zm0,80.71q0,31.06-31.16,31.16t-32.31-31.16q0-32.31,32.31-32.3t30.87,32.2Zm0,79.56c0,20.84-10.42,31.17-31.16,31.17s-32.31-10.33-32.31-31.17,10.8-32.3,32.31-32.3,30.87,10.71,30.87,32.21Zm0,83.07c0,21.6-10.42,32.3-31.16,32.3s-32.31-10.7-32.31-32.3,10.8-31.16,32.31-31.16,30.87,10.33,30.87,31.07Zm0,84.21c0,21.6-10.42,32.3-31.16,32.3s-32.31-10.7-32.31-32.3,10.8-32.3,32.31-32.3,30.87,10.71,30.87,32.21Zm0-710.42a22.45,22.45,0,0,1-25.67-26c0-16.1,8.43-24.25,25.38-24.25a21.4,21.4,0,0,1,24.25,18.13,20.92,20.92,0,0,1,0,6.12c0,17.24-8,25.67-24.25,25.67Zm90-94.72c0,21.6-10.8,32.3-32.31,32.3s-31.44-10.89-31.44-32.49,10.42-32.3,31.16-32.3,32.3,10.8,32.3,32.3Zm0,143.13q0,31.15-32.31,31.07t-31.16-31.07c0-21.6,10.42-32.3,31.16-32.3s32,10.51,32,32.11Zm-13.83-48.5c-16.2,0-24.25-8.43-24.25-25.39a21.41,21.41,0,0,1,18.12-24.25,21.7,21.7,0,0,1,6.13,0c16.86,0,25.38,8.15,25.38,24.25a22.45,22.45,0,0,1-25.67,25.2ZM2916.38,1072c0,21.59-10.8,32.3-32.3,32.3s-33.15-10.8-33.15-32.4,10.8-32.3,32.3-32.3,32.49,10.8,32.49,32.3Zm0,143.12q0,31.17-32.3,31.07T2850.93,1215c0-21.6,10.8-32.3,32.3-32.3s32.49,10.7,32.49,32.3Zm-27.56-48.59a22.46,22.46,0,0,1-25-25.67c0-16.1,8.43-24.25,25.38-24.25a21.5,21.5,0,0,1,24.25,18.35,20.83,20.83,0,0,1,0,5.9C2913.44,1158.1,2905.3,1166.53,2888.82,1166.53Z"/><path class="fc0a933d-b50f-44e1-8ca9-14b8f1e66b03" d="M3049.84,1480.35q0,31.07-31.16,31.16t-31.16-31.16q0-31.17,31.16-31.17T3049.84,1480.35Zm5.78,78.43q0,31.15-31.16,31.16c-20.84,0-31.17-10.42-31.17-31.16s10.33-31.17,31.17-31.17,30.88,10.42,30.88,31.17Zm1.14-154.59q0,31.15-31.16,31.16t-31.17-31.16q0-31.07,31.17-31.17t30.88,31.17Zm19.61,233q0,31.07-31.17,31.16T3014,1637.21q0-31.17,31.16-31.17t30.88,31.17Zm2.27-312.59c0,20.75-10.32,31.07-31.16,31.07s-31.17-10.32-31.17-31.07,10.42-31.16,31.17-31.16,30.78,10.32,30.78,31.16Zm34.57,387.61q0,31.15-31.07,31.16c-20.83,0-31.16-10.42-31.16-31.16s10-31.45,30.88-31.45,31.07,10.7,31.07,31.45Zm1.24-460.36c0,20.84-10.42,31.17-31.17,31.17s-31.16-10.33-31.16-31.17,10.42-31.06,31.16-31.06,30.88,10.32,30.88,31.06Zm13.82,230.75q0,31.16-31.16,31.16T3066,1482.62q0-31.06,31.16-31.17t30.88,31.17Zm6.92-79.57q-.09,31.46-31.45,31.45t-31.16-31.16q0-31.08,31.16-31.17t31.35,30.88Zm4.64,156.86q0,31.06-31.16,31.17t-31.17-31.17q0-31.15,31.17-31.16t30.88,31.16Zm20.74,214.55c0,20.84-10.41,31.16-31.16,31.16s-31.16-10.32-31.16-31.16,10.42-31.07,31.16-31.07,30.88,10.32,30.88,31.07Zm0-586c0,20.84-10.41,31.16-31.16,31.16s-30.31-10.32-30.31-31.35,10-31.07,30-31.07,31.16,10.52,31.16,31.07Zm1.14,452.3q0,31.07-31.16,31.16t-31.17-31.16c0-20.84,10.42-31.16,31.17-31.16s30.88,10.32,30.88,31.16Zm0-317.32c0,20.84-10,31.16-30,31.16s-31.06-10.32-31.06-31.16,10-31,30.78-31,30,10.23,30,31Zm39.69,380.69c0,20.84-10.32,31.16-31.16,31.16s-31.07-10.32-31.07-31.16,10.32-31.07,31.07-31.07S3201.4,1683.34,3201.4,1704.08Zm2.37-222.6q0,31.07-31.17,31.17t-30.78-30.79q0-31.06,31.16-31.16t31.17,31.16Zm1.14-221.46q0,31.17-31.17,31.07T3144.57,1260c0-20.84,10-31.16,30-31.16s30.69,10.32,30.69,31.16Zm6,293q0,31.15-31.16,31.16T3148.55,1553q0-31.08,31.16-31.17T3210.87,1553Zm3.41-150c0,20.75-10.32,31.17-31.16,31.17s-31.07-10.42-31.07-31.17,10.32-31.16,31.07-31.16,31.35,10.42,31.35,31.16Zm3.51,423.41q0,31.07-31.17,31.07t-31.16-31.07c0-20.08,10.42-30,31.16-30s31.36,10,31.36,30Zm1.13-691.47q0,31.07-31.16,31.16T3156.6,1135q0-31.08,31.16-31.17t31.35,31.55Zm18.47,492.55q0,31.08-31.16,31.17t-31.16-31.17c0-20.84,10.42-31.16,31.16-31.16s31.35,10.8,31.35,31.64Zm9.48-298.85c0,20.84-10.33,31.17-31.17,31.17s-31.07-10.33-31.07-31.17,10.33-31.06,31.07-31.06,31.07,10.79,31.07,31.54Zm12.69-128.06c0,20.84-10.32,31.16-31.16,31.16s-31.07-10.32-31.07-31.16,10.32-31.07,31.07-31.07,31.07,10.8,31.07,31.54Zm0,560.66c0,20.84-10.32,31.17-31.16,31.17s-31.07-10.33-31.07-31.17,10.32-31.07,31.07-31.07,31.07,10.8,31.07,31.55ZM3285,1868.61c0,20.75-10.33,31.17-31.17,31.17s-31.16-10.42-31.16-31.17,10.42-31.16,31.16-31.16,31.07,10.89,31.07,31.64Zm1-775.11q0,31.15-31.07,31.16c-20.84,0-31.17-10.42-31.17-31.16s10.33-31.17,31.17-31.17S3286,1073.13,3286,1093.5Zm3.5,593q0,31.07-31.16,31.16t-31.17-31.16q0-31.07,31.17-31.16t31.16,31.54Zm8.05-416.78c0,20.75-10.32,31.17-31.16,31.17s-31.16-10.42-31.16-31.17,10.42-31.16,31.16-31.16,31.16,11.08,31.16,31.83Zm25.39-108.46c0,20.84-10.42,31.17-31.16,31.17s-31.17-10.33-31.17-31.17,10.42-31.06,31.17-31.06,31.16,10.7,31.16,31.73Zm2.27,641.47q0,31.07-31.07,31.16c-20.84,0-31.16-10.42-31.16-31.16s10.32-31.17,31.16-31.17,31.07,11.08,31.07,31.83Zm27.76-72q0,31.07-31.17,31.07t-31.16-31.07c0-20.84,10.42-31.17,31.16-31.17S3353,1709.86,3353,1730.7Zm4.54-665.62c0,20.84-9.94,31.17-29.93,31.17s-31.45-10.42-31.45-31.17,10.42-31.07,31.17-31.07S3357.5,1044.24,3357.5,1065.08Zm1.23,833q0,31.07-31.16,31.07T3296.12,1898c0-20.84,10.42-31.17,31.17-31.17s31.44,10.33,31.44,31.17Zm8.06-672c0,20.84-10.42,31.16-31.17,31.16s-31.16-10.32-31.16-31.16,10.42-31.07,31.16-31.07S3366.79,1205.74,3366.79,1226.11Zm27.66-91.12c0,20.74-10.33,31.16-31.17,31.16s-31.16-10.42-31.16-31.16,10.42-31.17,31.16-31.17,31.17,10.8,31.17,31.55Zm9.47,693.37q0,31.07-31.17,31.16t-31.16-31.16q0-31.08,31.16-31.17t31,31.54Zm23-73.89c0,20.84-10.32,31.17-31.16,31.17s-31.16-10.33-31.16-31.17,10.42-31.07,31.16-31.07,31,10.71,31,31.45Zm10.42,159.23q0,31.07-31.16,31.16T3375,1913.7q0-31.07,31.16-31.16t31,31.54Zm3.41-864.06c0,20.75-10.32,31.17-31.16,31.17s-31.07-10.42-31.07-31.17,10.14-30.78,31.26-30.78,30.78,10.42,30.78,31.16Zm5.78,154.59c0,20.74-10.32,31.16-31.16,31.16s-31.07-10.42-31.07-31.16,10.32-31.16,31.07-31.16,31,10.79,31,31.54Zm27.76-78.43q0,31.15-31.17,31.16c-20.84,0-31.16-10.42-31.16-31.16s10.32-31.17,31.16-31.17,31,10.8,31,31.55Zm4.54,710.42q0,31.07-29.93,31.16c-20.84,0-31.16-10.42-31.16-31.16s10.32-31.17,31.16-31.17,29.74,11,29.74,31.74Zm27.76-78.43q0,31.07-31.17,31.16c-20.84,0-31.16-10.42-31.16-31.16s10.32-31.17,31.16-31.17,31,11,31,31.74Zm5.68,154.58q0,31.08-31.07,31.17c-20.84,0-31.16-10.42-31.16-31.17s10.32-31.16,31.16-31.16,30.88,11,30.88,31.73Zm3.5-864q0,31.15-31.16,31.16t-31.16-31.16q0-31.08,31.16-31.17t31,31.73ZM3526,1207.17c0,20.83-10.42,31.16-31.16,31.16s-31.16-10.33-31.16-31.16,10.42-31.07,31.16-31.07S3526,1186.14,3526,1207.17Zm23-73.79c0,20.74-9.94,31.16-30,31.16s-31.06-10.42-31.06-31.16,10.32-31.17,31.06-31.17,30,10.23,30,30.88Zm9.47,694.5q0,31.06-31.16,31.17T3496,1827.6c0-20.84,10.42-31.17,31.16-31.17s31.16,10.33,31.16,31.17Zm28.42-91.12q0,31.07-31.16,31.07t-31.17-31.07c0-20.84,10.42-31.16,31.17-31.16s31.35,10,31.35,30.87Zm7.11-671.68c0,20.84-10.42,31.17-31.17,31.17s-31.16-10.42-31.16-31.17,10.42-31.07,31.16-31.07S3594,1044.24,3594,1065.08Zm1.13,831.76c0,20.84-10.32,31.16-31.16,31.16s-31.07-10.42-31.07-31.25,10.32-31.07,31.07-31.07,31.16,10.32,31.16,31.07Zm4.64-664.48c0,20.84-10.42,31.17-31.16,31.17s-31.16-10.33-31.16-31.17,10.42-31.16,31.16-31.16,31.16,10.32,31.16,31.07Zm27.85-72.56c0,20.75-10.32,31.17-31.16,31.17s-31.07-10.42-31.07-31.17,10.32-31.16,31.07-31.16S3627.65,1138.87,3627.65,1159.8Zm2.37,641.46q0,31.08-31.16,31.07t-30-31.07c0-20.83,10-31.16,30-31.16s31,10.14,31,31Zm25.39-108.45q0,31.07-31.17,31.16t-31.16-31.16q0-31.08,31.16-31.17t31,31Zm8.05-416.78q0,31.07-31.17,31.16T3601.13,1276q0-31.17,31.16-31.17t31,31.26Zm4.45-182.53q0,31.15-31.16,31.16t-31.17-31.16q0-31.07,31.17-31.17T3667.91,1093.5Zm-1.23,775.21q0,31.07-29.93,31.16t-31.17-31.16q0-31.08,31.17-31.17t29.93,31.55Zm26.61-668c0,20.84-10.42,31.17-31.16,31.17s-31.16-10.33-31.16-31.17,10.32-31.06,31.16-31.06,31.16,10.7,31.16,31.44Zm0,559.53q0,31.07-31.16,31.16c-20.84,0-31.16-10.42-31.16-31.16s10.32-31.16,31.16-31.16,31.16,10.79,31.16,31.54Zm12.6-126.83q0,31.07-31.07,31.07c-20.84,0-31.16-10.33-31.16-31.07s10.32-31.17,31.16-31.17S3705.89,1613,3705.89,1633.42Zm9.47-298.85q0,31.07-31.16,31.16T3653,1334.57q0-31.17,31.16-31.17t31,31.55Zm18.48,492.55q0,31.08-31.17,31.17t-31.16-31.17c0-20.83,10.42-31.16,31.16-31.16s31,10.8,31,31.64Zm1.13-692.23q0,31.06-31.16,31.17t-31.16-31.17q0-31.07,31.16-31.16t31,31.64Zm3.41,423.41q0,31.17-31.07,31.17c-20.84,0-31.16-10.42-31.16-31.17s10.14-29.08,31-29.08,31.07,9.47,31.07,29.56Zm2.94-148.33q0,31.15-31.16,31.16T3679,1410q0-31.08,31.17-31.17T3741.32,1410Zm5.78,293c0,20.84-10.42,31.17-31.17,31.17s-31.16-10.33-31.16-31.17,10.42-31.07,31.16-31.07,31.55,10.33,31.55,31.07Zm1.51-221.08q0,31.07-31.16,31.16t-31.16-31.16q0-31.06,31.16-31.16T3748.61,1481.86Zm2.18-223.07c0,20.84-10.32,31.16-31.07,31.16s-31.16-10.32-31.16-31.16,10.32-31.07,31.16-31.07S3750.79,1238,3750.79,1258.79Zm40.45,63.46q0,31.17-31.17,31.17t-31.16-31.17q0-31.07,31.16-31.16t31.26,31.16Zm0,316.09c0,20.84-10.42,31.17-31.17,31.17s-31.16-10.33-31.16-31.17,10.42-31.16,31.16-31.16,31.26,10.42,31.26,31.16Zm1.23-450.12c0,20.84-10.42,31.16-31.16,31.16s-31.17-10.32-31.17-31.16,10.42-31.07,31.17-31.07S3792.47,1167.67,3792.47,1188.22Zm0,584.91q0,31.06-31.16,31.17t-31.17-31.17q0-31.07,31.17-31.16t31.16,31.35Zm20.74-371.4c0,20.74-10.32,31.06-31.16,31.06s-31.26-10.13-31.26-30.88,10.42-31.16,31.16-31.16,31.26,10.33,31.26,31.16Zm4.64,156.86q0,31.15-31.16,31.16t-31.16-31.16q0-31.08,31.16-31.17t31.16,31.36Zm6.92-78.43q0,31.06-31.16,31.16t-31.17-31.16q0-31.17,31.17-31.17t31.16,31.36Zm13.83,230.74q0,31.06-31.17,31.07t-31.16-31.07c0-20.84,10.42-31.16,31.16-31.16s31.17,10.51,31.17,31.35Zm1.14-460.35c0,20.74-10.33,31.16-31.17,31.16s-31.07-10.42-31.07-31.16,10.33-31.17,31.07-31.17,31.17,10.61,31.17,31.36Zm34.66,387.6c0,20.84-10.42,31.17-31.16,31.17s-31.16-10.33-31.16-31.17,10.42-31.16,31.16-31.16,31.16,10.61,31.16,31.35Zm2.28-312.58q0,31.07-31.17,31.16t-31.16-31.16q0-31.17,31.16-31.17t31.17,31.36Zm19.6,233q0,31.15-31.16,31.16T3834,1558.59q0-31.08,31.16-31.17t31.16,31.36Zm1.14-154.59c0,20.74-10.32,31.16-31.16,31.16s-31.07-10.42-31.07-31.16,10.32-31.17,31.07-31.17,31.16,10.61,31.16,31.36Zm5.78,78.43q0,31.15-31.16,31.16t-31.17-31.16q0-31.07,31.17-31.16t31.16,31.35Z"/><path class="ef7aef1b-3d89-4f26-8cc6-ade725257f03" d="M91.9,2990.71l104.19-80.9c50.3,72.09,124.28,117.27,210.66,117.27,90.56,0,156.58-51.24,156.58-132.61,0-55.51-41.58-87.33-105.71-126l-92.16-56.08c-77.3-47.36-132.62-110.16-132.62-212.84-.37-141.61,125.32-258.69,290.52-258.69,104.19,0,196,52.1,256.89,128.45L688,2454.58c-44.81-50.2-100.32-88.76-172.68-88.76-85.25,0-134.89,57.59-134.89,117.93,0,56.08,45.09,85.25,111.59,125.51l94.72,56.83c83.92,49.92,126.55,107.51,126.55,207.26-.38,158.18-128.54,276.87-318.37,276.87C277.74,3150.22,170.23,3101.53,91.9,2990.71Z"/><path class="a3f6490a-22af-4cc4-883a-78850e125c77" d="M1081.84,2380.22H839.45l24.15-123.14h629.62l-24.15,123.14h-242.4l-149.66,754H932Z"/><path class="ab714899-b9c8-4a3b-8e36-e622967f1165" d="M1624.22,2257.37h258c167.47,0,286.91,59.29,286.91,214.54,0,213.41-174.29,315.9-374.34,315.9H1662.21l-68.58,346.4H1448.89Zm174.29,415.07c148.62,0,227.34-70.19,227.34-180,0-84.78-59.49-119.64-171.07-119.64H1744.9l-58.44,299.8Zm-17.62,83.73L1887.55,2666l186.13,468.21H1920.33Z"/><path class="a4411837-2327-4331-b8f9-f974249a3647" d="M2383.05,2257.37h144.83l-175.05,876.84H2207.71Z"/><path class="e6e482bb-c4b9-4170-96e0-f47eb1b31314" d="M2735.6,2257.37h142.09l171.07,508.37,51.43,188.31h5.4c10.13-89.61,18.94-202.71,37.89-298.75l79.85-397.84h138.39l-175.33,876.75H3045.63l-170-507.33-51-191.44h-5.4c-10.13,93.87-21.4,201.1-40.73,296l-79.85,402.76H2560.27Z"/><path class="adb444c7-7091-4287-bae4-1d346a238852" d="M3426.6,2790.27c0-291.55,191.44-549.39,473-549.39,108.93,0,186.13,54.19,232.74,134.6l-99.75,75.78c-33.24-53.61-76.63-85.25-140.47-85.25-191,0-317.51,208.39-317.51,412.33.19,145.68,59,248.74,211.33,248.74a193.77,193.77,0,0,0,122.28-41.87l42.91-205.92h-162l22.45-118.6h290.6l-78.71,399.54a418.78,418.78,0,0,1-261.15,90C3548.32,3150.22,3426.6,3011.93,3426.6,2790.27Z"/></svg>