<?xml version="1.0" encoding="utf-8"?>
<!-- Generator: Adobe Illustrator 26.0.3, SVG Export Plug-In . SVG Version: 6.00 Build 0)  -->
<svg version="1.1" id="Layer_1" xmlns="http://www.w3.org/2000/svg" xmlns:xlink="http://www.w3.org/1999/xlink" x="0px" y="0px"
	 viewBox="0 0 4281.7 953" style="enable-background:new 0 0 4281.7 953;" xml:space="preserve">
<style type="text/css">
	.st0{fill:#FFFFFF;}
	.st1{fill:#2D3E50;}
	.st2{fill:#D25627;}
	.st3{fill:#D25627;stroke:#2D3E50;stroke-width:24;stroke-miterlimit:10;}
	.st4{fill:#2D3E50;stroke:#2D3E50;stroke-width:24;stroke-miterlimit:10;}
</style>
<rect class="st0" width="4281.7" height="953"/>
<g>
	<path class="st1" d="M1750.7,556.6c20.7,12.7,51,23.4,82.8,23.4c47.3,0,74.9-25,74.9-61.1c0-33.5-19.1-52.6-67.4-71.2
		c-58.4-20.7-94.5-51-94.5-101.4c0-55.8,46.2-97.2,115.8-97.2c36.6,0,63.2,8.5,79.1,17.5l-12.7,37.7c-11.7-6.4-35.6-17-68-17
		c-48.9,0-67.4,29.2-67.4,53.6c0,33.5,21.8,49.9,71.2,69c60.5,23.4,91.3,52.6,91.3,105.1c0,55.2-40.9,103-125.3,103
		c-34.5,0-72.2-10.1-91.3-22.8L1750.7,556.6z"/>
	<path class="st1" d="M2030,355.8l56.3,151.9c5.8,17,12.2,37.2,16.5,52.6h1.1c4.8-15.4,10.1-35,16.5-53.6l51-150.8h49.4l-70.1,183.2
		c-33.5,88.1-56.3,133.3-88.1,160.9c-22.8,20.2-45.7,28.1-57.3,30.3l-11.7-39.3c11.7-3.7,27.1-11.2,40.9-22.8
		c12.7-10.1,28.7-28.1,39.3-52c2.1-4.8,3.7-8.5,3.7-11.2s-1.1-6.4-3.2-12.2l-95-236.8h50.7V355.8z"/>
	<path class="st1" d="M2263.1,425.4c0-26.5-0.5-48.3-2.1-69.6h41.4l2.7,42.5h1.1c12.7-24.4,42.5-48.3,85-48.3
		c35.6,0,90.8,21.2,90.8,109.4v153.5h-46.7V464.7c0-41.4-15.4-75.9-59.5-75.9c-30.8,0-54.7,21.8-62.7,47.8
		c-2.1,5.8-3.2,13.8-3.2,21.8v154.5h-46.7V425.4H2263.1z"/>
	<path class="st1" d="M2559.4,259.7c20.2-4.2,52-7.4,84.4-7.4c46.2,0,75.9,8,98.2,26c18.6,13.8,29.7,35,29.7,63.2
		c0,34.5-22.8,64.8-60.5,78.6v1.1c34,8.5,73.8,36.6,73.8,89.7c0,30.8-12.2,54.2-30.3,71.7c-25,22.8-65.3,33.5-123.7,33.5
		c-31.9,0-56.3-2.1-71.7-4.2V259.7H2559.4z M2605.6,406.3h41.9c48.9,0,77.5-25.5,77.5-60c0-41.9-31.9-58.4-78.6-58.4
		c-21.2,0-33.5,1.6-40.9,3.2v115.2H2605.6z M2605.6,577.8c9,1.6,22.3,2.1,38.8,2.1c47.8,0,91.9-17.5,91.9-69.6c0-48.9-42-69-92.4-69
		h-38.2v136.5H2605.6z"/>
	<path class="st1" d="M2897.6,283.6c0.5,15.9-11.2,28.7-29.7,28.7c-16.5,0-28.1-12.7-28.1-28.7c0-16.5,12.2-29.2,29.2-29.2
		C2886.5,254.4,2897.6,267.2,2897.6,283.6z M2845.6,612.9v-257h46.7v257H2845.6z"/>
	<path class="st1" d="M3202.4,482.2c0,95.1-65.8,136.5-128,136.5c-69.6,0-123.2-51-123.2-132.2c0-86,56.3-136.5,127.4-136.5
		C3152.5,350,3202.4,403.6,3202.4,482.2z M2998.5,484.9c0,56.3,32.4,98.8,78.1,98.8c44.6,0,78.1-42,78.1-99.8
		c0-43.5-21.8-98.8-77-98.8S2998.5,436,2998.5,484.9z"/>
	<path class="st2" d="M3309.1,255v149.7h173.1V255h46.7v357.9h-46.7V445.1h-173.1v167.8h-46.2V255H3309.1z"/>
	<path class="st2" d="M3822.6,542.8c0,26.6,0.5,49.9,2.1,70.1h-41.4l-2.7-41.9h-1.1c-12.2,20.7-39.3,47.8-85,47.8
		c-40.4,0-88.7-22.3-88.7-112.6V355.8h46.7v142.3c0,48.9,14.9,81.8,57.3,81.8c31.3,0,53.1-21.8,61.6-42.5c2.7-6.9,4.2-15.4,4.2-23.9
		V355.8h46.7v187H3822.6z"/>
	<path class="st2" d="M3898,612.9c1.1-17.5,2.1-43.5,2.1-66.4V235.8h46.2v161.4h1.1c16.5-28.7,46.2-47.3,87.6-47.3
		c63.7,0,108.9,53.1,108.3,131.2c0,91.9-57.9,137.5-115.2,137.5c-37.2,0-66.9-14.3-86-48.3h-1.6l-2.1,42.5L3898,612.9L3898,612.9z
		 M3946.3,509.8c0,5.8,1.1,11.7,2.1,17c9,32.4,36.1,54.7,70.1,54.7c48.9,0,78.1-39.8,78.1-98.8c0-51.5-26.5-95.6-76.5-95.6
		c-31.9,0-61.6,21.8-71.2,57.3c-1.1,5.3-2.7,11.7-2.7,19.1L3946.3,509.8L3946.3,509.8z"/>
</g>
<path class="st1" d="M1001.5,783.5H596.3c-56.1,0-104.5-45.9-104.5-104.5V273.9c0.1-56.1,45.9-104.5,104.5-104.5h405.1
	c56.1,0,104.5,45.9,104.5,104.5V679C1105.9,737.6,1057.5,783.5,1001.5,783.5z M596.3,197.5c-43.3,0-79,35.7-79,79v405.1
	c0,43.3,35.7,79,79,79h405.1c43.3,0,79-35.7,79-79V276.4c0-43.3-35.7-79-79-79L596.3,197.5L596.3,197.5z"/>
<path class="st2" d="M693.2,426.8c-45.9,0-84.1-38.2-84.1-84.1s38.2-86.6,84.1-86.6s84.1,38.2,84.1,86.6
	C777.2,388.5,741.6,426.8,693.2,426.8z M693.2,276.4c-35.7,0-63.7,28-63.7,63.7s28,63.7,63.7,63.7s63.7-28,63.7-63.7
	S728.8,276.4,693.2,276.4z"/>
<rect x="965.5" y="350.7" transform="matrix(0.7673 -0.6413 0.6413 0.7673 -4.772 716.3255)" class="st1" width="38.2" height="28"/>
<polygon class="st1" points="950.5,355.4 978.5,332.5 963.2,312.1 932.7,335 "/>
<path class="st1" d="M953,301.9l-10.1-12.7c-5.1-5.1-12.7-7.6-20.4-2.5l-7.6,7.6c-5.1,5.1-7.6,12.7-2.5,20.4l10.2,12.7L953,301.9z"
	/>
<rect x="1083" y="301.9" class="st1" width="191.1" height="25.5"/>
<rect x="1103.4" y="523.6" class="st1" width="338.9" height="25.5"/>
<rect x="311" y="549.1" class="st1" width="191.1" height="25.5"/>
<rect x="170.9" y="327.4" class="st1" width="338.9" height="25.5"/>
<path class="st1" d="M986.4,398.1l10.4,12.5c5.2,5,12.9,7.4,20.4,2.2l7.5-7.8c5-5.2,7.4-12.9,2.2-20.4l-10.4-12.5L986.4,398.1z"/>
<circle class="st1" cx="876.1" cy="615.3" r="26.3"/>
<circle class="st1" cx="753.8" cy="667.9" r="26.3"/>
<circle class="st1" cx="737.2" cy="562.7" r="26.3"/>
<circle class="st1" cx="913.3" cy="524.4" r="26.3"/>
<circle class="st3" cx="257.5" cy="562.5" r="48.4"/>
<circle class="st4" cx="128.3" cy="340.1" r="48.4"/>
<circle class="st3" cx="1321.2" cy="314.7" r="48.4"/>
<circle class="st4" cx="1481.2" cy="536.3" r="48.4"/>
<rect x="798.9" y="462.4" class="st1" width="35.7" height="35.7"/>
<rect x="616.6" y="610.9" class="st1" width="35.7" height="35.7"/>
<rect x="-2312.2" y="-2597.7" class="st0" width="12.5" height="0"/>
</svg>
