<?xml version="1.0" encoding="utf-8"?>
<!-- Generator: Adobe Illustrator 26.0.3, SVG Export Plug-In . SVG Version: 6.00 Build 0)  -->
<svg version="1.1" id="Layer_1" xmlns="http://www.w3.org/2000/svg" xmlns:xlink="http://www.w3.org/1999/xlink" x="0px" y="0px"
	 viewBox="0 0 4281.7 953" style="enable-background:new 0 0 4281.7 953;" xml:space="preserve">
<style type="text/css">
	.st0{fill:#FFFFFF;}
	.st1{fill:#232323;}
	.st2{fill:#98C255;}
	.st3{fill:none;}
</style>
<rect x="0" y="0" class="st0" width="4281.7" height="953"/>
<path class="st1" d="M854.5,579.8c35.5-13.8,75.6,2,92.1,35.5c15.1,32.2,50,67.1,113.8,67.1c60.5,0,102.6-28.9,103.3-75
	c1.3-31.6-13.2-59.2-84.8-80.2l-84.8-23.7C838,456.2,811,367.4,811,303.6c0-126.3,107.9-211.1,242.7-211.1
	c101.3,0,176.9,44.1,215.1,117.7c15.8,28.9,5.9,65.8-22.4,82.9c-36.8,23.7-69.7,13.2-94.1-17.1c-23.7-31.6-61.2-49.3-100.6-49.3
	c-52.6,0-91.4,30.9-91.4,73c0,18.4,7.2,52,75.6,71.7l84.2,24.3c171,49.3,196,145.4,193.4,213.1c-1.3,140.8-128.3,207.2-253.2,207.2
	s-215.1-60.5-246-151.9C801.8,629.8,819.6,592.3,854.5,579.8C853.8,580.5,854.5,580.5,854.5,579.8z"/>
<path class="st1" d="M1480.6,806.7c-38.1,0-59.2-29.6-59.2-63.8V164.1c1.3-34.9,21.7-63.8,59.2-63.8h223.6
	c126.9,0,209.2,75.6,209.2,196.7c0,46-23.7,104.6-96,132.2c92.7,23,132.9,103.3,132.9,161.1c0,117.1-84.8,216.4-225.6,216.4
	C1724.6,806.7,1480.6,806.7,1480.6,806.7z M1689.1,382.5c38.8,0,65.8-32.9,65.8-75c0-44.1-22.4-75-66.4-75h-117.1v149.3h117.7V382.5
	z M1571.4,501.6v173h144.7c50,0,75.6-46,75.6-88.1c0-40.1-25.7-84.8-78.9-84.8C1712.8,501.6,1571.4,501.6,1571.4,501.6z"/>
<path class="st1" d="M3226.2,675.2h203.9c33.5,0,61.2,29.6,61.2,65.8c0,33.5-28.9,64.5-61.2,65.8h-294c-38.1,0-59.2-28.9-59.2-63.8
	V165.5c0.7-36.8,35.5-69.7,75-69.7c40.8,0,75,31.6,75,69.7v509.7H3226.2z"/>
<path class="st2" d="M2958.5,630.5c-32.9-19.1-59.9-46.7-77.6-79.6c-14.5,55.9-40.8,107.2-77,151.9c23,23.7,49.3,44.1,77.6,60.5
	c36.8,21,83.5,8.6,105.2-28.3C3007.8,698.9,2995.3,651.5,2958.5,630.5L2958.5,630.5z"/>
<polygon class="st3" points="2855.2,451.6 2855.2,451.6 2855.2,451.6 "/>
<path class="st2" d="M2107.4,139.2c-37.5-20.4-84.2-6.6-103.9,30.9c-19.1,35.5-7.2,80.2,27,101.9c32.9,19.1,59.9,46.7,77.6,79.6
	c14.5-55.2,40.8-107.2,77-151.9C2162.7,176.6,2136.4,156.3,2107.4,139.2z"/>
<polygon class="st0" points="2701.3,451.6 2701.3,451.6 2701.3,451.6 "/>
<path class="st2" d="M2494.2,91.1c-198.6,0-360.4,161.1-360.4,360.4c0,73.7-39.5,142.1-103.3,178.9c-36.8,21-50,67.7-28.9,104.6
	c21,36.8,67.7,50,104.6,28.9c0.7,0,0.7-0.7,1.3-0.7c28.3-16.4,54.6-36.8,77.6-60.5c9.2-9.2,17.8-19.1,26.3-28.9
	c49.3-63.1,76.3-141.4,76.3-221.7c0-114.4,92.7-207.2,206.5-207.2c75.6,0,144.7,40.8,181.5,107.2c14.5-55.2,40.8-107.2,77-151.3
	C2684.9,130.6,2591.5,91.1,2494.2,91.1z"/>
<path class="st2" d="M2855.2,451.6c0-73.7,39.5-142.1,103.3-179.6c37.5-20.4,51.3-66.4,30.9-103.9c-19.7-37.5-66.4-51.3-103.9-30.9
	c-1.3,0.7-2.6,1.3-3.9,2c-28.3,16.4-54.6,36.8-77.6,60.5c-9.2,9.2-17.8,19.1-25.7,29.6l0,0c-50,63.1-77,141.4-77,221.7l0,0
	c0,114.4-92.7,207.2-206.5,207.2c-75.6,0-144.7-40.8-181.5-106.6c-14.5,55.2-40.1,107.2-76.3,151.9c138.8,142.1,367,145.4,509.1,6.6
	C2815.8,641.7,2855.2,548.9,2855.2,451.6"/>
<path class="st2" d="M2490.9,617.3c-15.1,0-27-12.5-27-27.6v-271c0.7-15.1,13.8-27,28.9-26.3c13.8,0.7,25,11.8,26.3,26.3v271
	C2518.5,604.8,2506.6,617.3,2490.9,617.3C2491.5,617.3,2490.9,617.3,2490.9,617.3z"/>
<path class="st2" d="M2392.9,545.6c-15.1,0-27.6-11.8-27.6-27l0,0V390.4c-0.7-15.1,11.2-27.6,26.3-28.9
	c15.1-0.7,27.6,11.2,28.9,26.3c0,0.7,0,2,0,2.6V518C2419.8,533.1,2408,545.6,2392.9,545.6z"/>
<path class="st2" d="M2596.8,545.6c-15.1,0-27-12.5-27-27.6V390.4c-0.7-15.1,11.2-27.6,26.3-28.9c15.1-0.7,27.6,11.2,28.9,26.3
	c0,0.7,0,2,0,2.6V518C2623.7,533.1,2611.9,545.6,2596.8,545.6z"/>
</svg>
