<svg id="a8eeef05-bcd9-403a-810b-d5202ae25cc5" data-name="Layer 1" xmlns="http://www.w3.org/2000/svg" viewBox="0 0 4282 4282"><defs><style>.afadfb93-394a-40d0-9b32-041409ca8100{fill:#fff;}.a1a6abc8-d78a-4ed4-96a5-e0da0eb7e994{fill:#232323;}.ef1f56e8-8929-47a2-873a-a015b4af5071{fill:#98c255;}</style></defs><rect class="afadfb93-394a-40d0-9b32-041409ca8100" x="0.15" width="4281.7" height="4282"/><path class="a1a6abc8-d78a-4ed4-96a5-e0da0eb7e994" d="M233,2294.41c52.74-20.51,112.31,2.93,136.72,52.74,22.46,47.85,74.22,99.61,168.95,99.61,89.84,0,152.34-43,153.32-111.33,2-46.88-19.54-87.89-126-119.14l-126-35.16C208.6,2110.82,168.56,1979,168.56,1884.26c0-187.5,160.16-313.48,360.35-313.48,150.39,0,262.69,65.43,319.33,174.81,23.44,43,8.79,97.65-33.2,123-54.69,35.16-103.51,19.53-139.65-25.39C640.24,1796.37,584.57,1770,526,1770c-78.12,0-135.74,45.9-135.74,108.4,0,27.34,10.74,77.15,112.3,106.44l125,36.14c253.91,73.24,291,215.82,287.11,316.4-1.95,209-190.43,307.62-376,307.62s-319.34-89.85-365.24-225.59c-18.55-50.78,7.82-106.44,59.57-125C232,2295.39,233,2295.39,233,2294.41Z"/><path class="a1a6abc8-d78a-4ed4-96a5-e0da0eb7e994" d="M1162.7,2631.32c-56.64,0-87.89-43.94-87.89-94.72V1677.23c2-51.76,32.22-94.73,87.89-94.73h332c188.48,0,310.55,112.31,310.55,292,0,68.36-35.16,155.28-142.58,196.29C1800.39,2105,1860,2224.1,1860,2310c0,173.82-126,321.28-335,321.28Zm309.56-629.87c57.62,0,97.66-48.83,97.66-111.33,0-65.43-33.2-111.33-98.63-111.33H1297.46v221.68h174.8Zm-174.8,176.75V2435H1512.3c74.22,0,112.31-68.36,112.31-130.86,0-59.57-38.09-126-117.19-126Z"/><path class="a1a6abc8-d78a-4ed4-96a5-e0da0eb7e994" d="M3754.48,2436h302.73c49.8,0,90.82,43.95,90.82,97.66,0,49.8-43,95.7-90.82,97.65H3620.69c-56.64,0-87.89-43-87.89-94.72V1679.18c1-54.69,52.73-103.51,111.32-103.51,60.55,0,111.33,46.87,111.33,103.51V2436Z"/><path class="ef1f56e8-8929-47a2-873a-a015b4af5071" d="M3357,2369.61a304.43,304.43,0,0,1-115.24-118.17c-21.48,83-60.54,159.18-114.25,225.59a538.68,538.68,0,0,0,115.23,89.84c54.69,31.25,124,12.7,156.25-42,31.25-53.71,12.69-124-42-155.27Z"/><path class="ef1f56e8-8929-47a2-873a-a015b4af5071" d="M2093.35,1640.12c-55.66-30.27-125-9.77-154.29,45.9-28.32,52.73-10.74,119.14,40,151.36a304.48,304.48,0,0,1,115.23,118.17A602,602,0,0,1,2208.59,1730C2175.38,1695.78,2136.32,1665.51,2093.35,1640.12Z"/><path class="ef1f56e8-8929-47a2-873a-a015b4af5071" d="M2667.57,1568.83c-294.92,0-535.15,239.26-535.15,535.15a307.19,307.19,0,0,1-153.32,265.63c-54.69,31.25-74.22,100.58-43,155.27s100.58,74.22,155.27,43c1,0,1-1,1.95-1A538.49,538.49,0,0,0,2208.59,2477c13.67-13.67,26.36-28.32,39.06-43A535.46,535.46,0,0,0,2360.93,2105c0-169.92,137.69-307.61,306.64-307.61,112.3,0,214.84,60.54,269.53,159.17a590.52,590.52,0,0,1,114.26-224.6A532.58,532.58,0,0,0,2667.57,1568.83Z"/><path class="ef1f56e8-8929-47a2-873a-a015b4af5071" d="M3203.7,2104c0-109.37,58.59-210.93,153.32-266.6,55.66-30.27,76.17-98.63,45.9-154.29-29.3-55.67-98.64-76.17-154.3-45.9l-5.86,2.93A538.68,538.68,0,0,0,3127.53,1730a408.31,408.31,0,0,0-38.09,44h0A530.43,530.43,0,0,0,2975.18,2103h0c0,169.92-137.69,307.61-306.63,307.61A308.38,308.38,0,0,1,2399,2252.42c-21.49,82-59.57,159.18-113.29,225.58,206.06,210.94,544.92,215.82,755.86,9.77C3145.1,2386.21,3203.7,2248.51,3203.7,2104"/><path class="ef1f56e8-8929-47a2-873a-a015b4af5071" d="M2662.69,2350.08c-22.47,0-40-18.56-40-41V1906.72c1-22.46,20.5-40,43-39.06,20.5,1,37.1,17.58,39.06,39.06v402.34c-1,22.46-18.56,41-42,41Z"/><path class="ef1f56e8-8929-47a2-873a-a015b4af5071" d="M2517.18,2243.63c-22.46,0-41-17.58-41-40h0V2013.16c-1-22.46,16.61-41,39.07-43,22.46-1,41,16.6,43,39.06v193.36C2557.22,2225.08,2539.64,2243.63,2517.18,2243.63Z"/><path class="ef1f56e8-8929-47a2-873a-a015b4af5071" d="M2819.91,2243.63c-22.46,0-40-18.55-40-41V2013.16c-1-22.46,16.6-41,39.06-43,22.47-1,41,16.6,43,39.06v193.36C2860,2225.08,2842.37,2243.63,2819.91,2243.63Z"/></svg>