<svg id="aff8ce88-76ab-462f-b3ae-807947ff0c51" data-name="Layer 1" xmlns="http://www.w3.org/2000/svg" viewBox="0 0 4282 4282"><defs><style>.b9ea6a4e-8f19-4fb2-aec6-862bd22dc1f0{fill:#fff;}.b0720275-73f5-43fa-80ee-7f0557063e60,.e30afa35-b8f1-497f-ae07-8176cdd550ed{fill:#2d3e50;}.a35fecf1-b478-40fd-a59b-952b1b1ebc02,.eaaadff4-9abf-44e6-857f-85b590c42fa1{fill:#d25627;}.a35fecf1-b478-40fd-a59b-952b1b1ebc02,.b0720275-73f5-43fa-80ee-7f0557063e60{stroke:#2d3e50;stroke-miterlimit:10;stroke-width:24px;}</style></defs><rect class="b9ea6a4e-8f19-4fb2-aec6-862bd22dc1f0" x="0.16" width="4281.68" height="4281.68"/><path class="e30afa35-b8f1-497f-ae07-8176cdd550ed" d="M1750.9,2221.15c20.7,12.7,51,23.4,82.8,23.4,47.3,0,74.9-25,74.9-61.1,0-33.5-19.1-52.6-67.4-71.2-58.4-20.7-94.5-51-94.5-101.4,0-55.8,46.2-97.2,115.8-97.2,36.6,0,63.2,8.5,79.1,17.5l-12.7,37.7a142.38,142.38,0,0,0-68-17c-48.9,0-67.4,29.2-67.4,53.6,0,33.5,21.8,49.9,71.2,69,60.5,23.4,91.3,52.6,91.3,105.1,0,55.2-40.9,103-125.3,103-34.5,0-72.2-10.1-91.3-22.8Z"/><path class="e30afa35-b8f1-497f-ae07-8176cdd550ed" d="M2030.2,2020.35l56.3,151.9c5.8,17,12.2,37.2,16.5,52.6h1.1c4.8-15.4,10.1-35,16.5-53.6l51-150.8H2221l-70.1,183.2c-33.5,88.1-56.3,133.3-88.1,160.9-22.8,20.2-45.7,28.1-57.3,30.3l-11.7-39.3a124.44,124.44,0,0,0,40.9-22.8c12.7-10.1,28.7-28.1,39.3-52,2.1-4.8,3.7-8.5,3.7-11.2s-1.1-6.4-3.2-12.2l-95-236.8h50.7Z"/><path class="e30afa35-b8f1-497f-ae07-8176cdd550ed" d="M2263.3,2090c0-26.5-.5-48.3-2.1-69.6h41.4l2.7,42.5h1.1c12.7-24.4,42.5-48.3,85-48.3,35.6,0,90.8,21.2,90.8,109.4v153.5h-46.7v-148.2c0-41.4-15.4-75.9-59.5-75.9-30.8,0-54.7,21.8-62.7,47.8-2.1,5.8-3.2,13.8-3.2,21.8v154.5h-46.7V2090Z"/><path class="e30afa35-b8f1-497f-ae07-8176cdd550ed" d="M2559.6,1924.25c20.2-4.2,52-7.4,84.4-7.4,46.2,0,75.9,8,98.2,26,18.6,13.8,29.7,35,29.7,63.2,0,34.5-22.8,64.8-60.5,78.6v1.1c34,8.5,73.8,36.6,73.8,89.7,0,30.8-12.2,54.2-30.3,71.7-25,22.8-65.3,33.5-123.7,33.5-31.9,0-56.3-2.1-71.7-4.2v-352.2Zm46.2,146.6h41.9c48.9,0,77.5-25.5,77.5-60,0-41.9-31.9-58.4-78.6-58.4-21.2,0-33.5,1.6-40.9,3.2v115.2Zm0,171.5c9,1.6,22.3,2.1,38.8,2.1,47.8,0,91.9-17.5,91.9-69.6,0-48.9-42-69-92.4-69h-38.2v136.5Z"/><path class="e30afa35-b8f1-497f-ae07-8176cdd550ed" d="M2897.8,1948.15c.5,15.9-11.2,28.7-29.7,28.7-16.5,0-28.1-12.7-28.1-28.7,0-16.5,12.2-29.2,29.2-29.2C2886.7,1919,2897.8,1931.75,2897.8,1948.15Zm-52,329.3v-257h46.7v257Z"/><path class="e30afa35-b8f1-497f-ae07-8176cdd550ed" d="M3202.6,2146.75c0,95.1-65.8,136.5-128,136.5-69.6,0-123.2-51-123.2-132.2,0-86,56.3-136.5,127.4-136.5C3152.7,2014.55,3202.6,2068.15,3202.6,2146.75Zm-203.9,2.7c0,56.3,32.4,98.8,78.1,98.8,44.6,0,78.1-42,78.1-99.8,0-43.5-21.8-98.8-77-98.8S2998.7,2100.55,2998.7,2149.45Z"/><path class="eaaadff4-9abf-44e6-857f-85b590c42fa1" d="M3309.3,1919.55v149.7h173.1v-149.7h46.7v357.9h-46.7v-167.8H3309.3v167.8h-46.2v-357.9Z"/><path class="eaaadff4-9abf-44e6-857f-85b590c42fa1" d="M3822.8,2207.35c0,26.6.5,49.9,2.1,70.1h-41.4l-2.7-41.9h-1.1c-12.2,20.7-39.3,47.8-85,47.8-40.4,0-88.7-22.3-88.7-112.6v-150.4h46.7v142.3c0,48.9,14.9,81.8,57.3,81.8,31.3,0,53.1-21.8,61.6-42.5a67.32,67.32,0,0,0,4.2-23.9v-157.7h46.7v187Z"/><path class="eaaadff4-9abf-44e6-857f-85b590c42fa1" d="M3898.2,2277.45c1.1-17.5,2.1-43.5,2.1-66.4v-310.7h46.2v161.4h1.1c16.5-28.7,46.2-47.3,87.6-47.3,63.7,0,108.9,53.1,108.3,131.2,0,91.9-57.9,137.5-115.2,137.5-37.2,0-66.9-14.3-86-48.3h-1.6l-2.1,42.5h-40.4Zm48.3-103.1a93,93,0,0,0,2.1,17c9,32.4,36.1,54.7,70.1,54.7,48.9,0,78.1-39.8,78.1-98.8,0-51.5-26.5-95.6-76.5-95.6-31.9,0-61.6,21.8-71.2,57.3-1.1,5.3-2.7,11.7-2.7,19.1v46.3Z"/><path class="e30afa35-b8f1-497f-ae07-8176cdd550ed" d="M1001.7,2448.05H596.5c-56.1,0-104.5-45.9-104.5-104.5v-405.1c.1-56.1,45.9-104.5,104.5-104.5h405.1c56.1,0,104.5,45.9,104.5,104.5v405.1C1106.1,2402.15,1057.7,2448.05,1001.7,2448.05Zm-405.2-586c-43.3,0-79,35.7-79,79v405.1c0,43.3,35.7,79,79,79h405.1c43.3,0,79-35.7,79-79V1941c0-43.3-35.7-79-79-79H596.5Z"/><path class="eaaadff4-9abf-44e6-857f-85b590c42fa1" d="M693.4,2091.35c-45.9,0-84.1-38.2-84.1-84.1s38.2-86.6,84.1-86.6,84.1,38.2,84.1,86.6C777.4,2053.05,741.8,2091.35,693.4,2091.35Zm0-150.4c-35.7,0-63.7,28-63.7,63.7s28,63.7,63.7,63.7,63.7-28,63.7-63.7S729,1941,693.4,1941Z"/><rect class="e30afa35-b8f1-497f-ae07-8176cdd550ed" x="965.71" y="2015.25" width="38.2" height="28" transform="translate(-1072.18 1103.77) rotate(-39.89)"/><polygon class="e30afa35-b8f1-497f-ae07-8176cdd550ed" points="950.7 2019.95 978.7 1997.05 963.4 1976.65 932.9 1999.55 950.7 2019.95"/><path class="e30afa35-b8f1-497f-ae07-8176cdd550ed" d="M953.2,1966.45l-10.1-12.7c-5.1-5.1-12.7-7.6-20.4-2.5l-7.6,7.6c-5.1,5.1-7.6,12.7-2.5,20.4l10.2,12.7Z"/><rect class="e30afa35-b8f1-497f-ae07-8176cdd550ed" x="1083.2" y="1966.45" width="191.1" height="25.5"/><rect class="e30afa35-b8f1-497f-ae07-8176cdd550ed" x="1103.6" y="2188.15" width="338.9" height="25.5"/><rect class="e30afa35-b8f1-497f-ae07-8176cdd550ed" x="311.2" y="2213.65" width="191.1" height="25.5"/><rect class="e30afa35-b8f1-497f-ae07-8176cdd550ed" x="171.1" y="1991.95" width="338.9" height="25.5"/><path class="e30afa35-b8f1-497f-ae07-8176cdd550ed" d="M986.6,2062.65l10.4,12.5c5.2,5,12.9,7.4,20.4,2.2l7.5-7.8c5-5.2,7.4-12.9,2.2-20.4l-10.4-12.5Z"/><circle class="e30afa35-b8f1-497f-ae07-8176cdd550ed" cx="876.3" cy="2279.85" r="26.3"/><circle class="e30afa35-b8f1-497f-ae07-8176cdd550ed" cx="754" cy="2332.45" r="26.3"/><circle class="e30afa35-b8f1-497f-ae07-8176cdd550ed" cx="737.4" cy="2227.25" r="26.3"/><circle class="e30afa35-b8f1-497f-ae07-8176cdd550ed" cx="913.5" cy="2188.95" r="26.3"/><circle class="a35fecf1-b478-40fd-a59b-952b1b1ebc02" cx="257.7" cy="2227.05" r="48.4"/><circle class="b0720275-73f5-43fa-80ee-7f0557063e60" cx="128.5" cy="2004.65" r="48.4"/><circle class="a35fecf1-b478-40fd-a59b-952b1b1ebc02" cx="1321.4" cy="1979.25" r="48.4"/><circle class="b0720275-73f5-43fa-80ee-7f0557063e60" cx="1481.4" cy="2200.85" r="48.4"/><rect class="e30afa35-b8f1-497f-ae07-8176cdd550ed" x="799.1" y="2126.95" width="35.7" height="35.7"/><rect class="e30afa35-b8f1-497f-ae07-8176cdd550ed" x="616.8" y="2275.45" width="35.7" height="35.7"/></svg>