<svg id="abab0fc1-a3b0-4615-8a7d-f294adc36b19" data-name="Layer 1" xmlns="http://www.w3.org/2000/svg" viewBox="0 0 4282 4282"><defs><style>.a279d2ec-e933-43b0-be13-f9b8009ac70f{fill:#fff;}.f3672635-644f-430d-a3b7-a8aba0566dc9{fill:#2d3e50;}.ba5393b7-fef7-4cf6-80fc-a05689c868c3{fill:#d25627;}</style></defs><rect class="a279d2ec-e933-43b0-be13-f9b8009ac70f" x="0.16" width="4281.68" height="4281.68"/><path class="f3672635-644f-430d-a3b7-a8aba0566dc9" d="M352.72,2969.59c32.29,19.81,79.54,36.5,129.14,36.5,73.77,0,116.81-39,116.81-95.3,0-52.24-29.79-82-105.12-111-91.08-32.28-147.38-79.54-147.38-158.14,0-87,72.05-151.6,180.6-151.6,57.08,0,98.57,13.26,123.37,27.3l-19.81,58.79a222.08,222.08,0,0,0-106.05-26.51c-76.27,0-105.12,45.54-105.12,83.6,0,52.24,34,77.82,111,107.61,94.36,36.49,142.4,82,142.4,163.91,0,86.09-63.79,160.64-195.42,160.64-53.81,0-112.61-15.75-142.39-35.56Z"/><path class="f3672635-644f-430d-a3b7-a8aba0566dc9" d="M788.32,2656.42l87.8,236.91c9,26.51,19,58,25.74,82h1.71c7.49-24,15.75-54.58,25.74-83.59l79.54-235.19h77L976.56,2942.3c-52.25,137.4-87.8,207.89-137.4,250.94-35.56,31.5-71.27,43.82-89.36,47.25l-18.25-61.29c18.25-5.77,42.26-17.47,63.79-35.56,19.8-15.75,44.76-43.82,61.29-81.1,3.27-7.48,5.77-13.25,5.77-17.46s-1.72-10-5-19L709.25,2656.74h79.07Z"/><path class="f3672635-644f-430d-a3b7-a8aba0566dc9" d="M1151.86,2765c0-41.33-.78-75.33-3.27-108.55h64.56l4.21,66.29h1.72c19.81-38.06,66.28-75.33,132.57-75.33,55.52,0,141.61,33.06,141.61,170.62v239.4h-72.84V2826.26c0-64.56-24-118.37-92.79-118.37-48,0-85.31,34-97.79,74.55-3.27,9-5,21.52-5,34v241H1152V2765Z"/><path class="f3672635-644f-430d-a3b7-a8aba0566dc9" d="M1614,2506.55c31.5-6.55,81.1-11.55,131.63-11.55,72.05,0,118.37,12.48,153.15,40.55,29,21.53,46.32,54.59,46.32,98.57,0,53.81-35.56,101.06-94.35,122.59v1.71c53,13.26,115.1,57.08,115.1,139.9,0,48-19,84.53-47.26,111.82-39,35.56-101.84,52.25-192.92,52.25-49.75,0-87.81-3.28-111.83-6.55V2506.55Zm72,228.63h65.35c76.26,0,120.87-39.77,120.87-93.57,0-65.35-49.75-91.08-122.59-91.08-33.06,0-52.24,2.49-63.78,5v179.66Zm0,267.47c14,2.5,34.78,3.28,60.52,3.28,74.55,0,143.32-27.29,143.32-108.55,0-76.26-65.5-107.61-144.1-107.61h-59.58v212.88Z"/><path class="f3672635-644f-430d-a3b7-a8aba0566dc9" d="M2141.43,2543.82c.78,24.8-17.47,44.76-46.32,44.76-25.74,0-43.83-19.81-43.83-44.76,0-25.73,19-45.54,45.54-45.54C2124.12,2498.28,2141.43,2518.24,2141.43,2543.82Zm-81.1,513.58V2656.58h72.83V3057.4Z"/><path class="f3672635-644f-430d-a3b7-a8aba0566dc9" d="M2616.79,2853.56c0,148.31-102.62,212.88-199.63,212.88-108.54,0-192.14-79.54-192.14-206.18,0-134.12,87.81-212.88,198.69-212.88C2539,2647.38,2616.79,2731,2616.79,2853.56Zm-318,4.21c0,87.8,50.53,154.09,121.81,154.09,69.55,0,121.8-65.51,121.8-155.65,0-67.84-34-154.09-120.09-154.09S2298.79,2781.5,2298.79,2857.77Z"/><path class="ba5393b7-fef7-4cf6-80fc-a05689c868c3" d="M2783.2,2499.22v233.47h270V2499.22H3126V3057.4h-72.83V2795.7h-270v261.7h-72V2499.22Z"/><path class="ba5393b7-fef7-4cf6-80fc-a05689c868c3" d="M3584.06,2948.07c0,41.48.78,77.82,3.27,109.33h-64.56l-4.22-65.35h-1.71c-19,32.28-61.29,74.55-132.57,74.55-63,0-138.33-34.78-138.33-175.61V2656.42h72.83v221.93c0,76.27,23.24,127.58,89.36,127.58,48.82,0,82.82-34,96.08-66.28,4.21-10.76,6.55-24,6.55-37.28V2656.42h72.83v291.65Z"/><path class="ba5393b7-fef7-4cf6-80fc-a05689c868c3" d="M3701.65,3057.4c1.72-27.3,3.28-67.85,3.28-103.56V2469.27H3777V2721h1.72c25.73-44.76,72.05-73.77,136.62-73.77,99.34,0,169.84,82.82,168.9,204.62,0,143.33-90.3,214.45-179.66,214.45-58,0-104.34-22.31-134.13-75.33h-2.5l-3.27,66.28h-63ZM3777,2896.6c0,9.05,1.72,18.25,3.27,26.52,14,50.53,56.31,85.31,109.33,85.31,76.27,0,121.81-62.08,121.81-154.09,0-80.32-41.33-149.1-119.31-149.1-49.75,0-96.07,34-111,89.36-1.72,8.27-4.22,18.25-4.22,29.79v72.21Z"/><path class="f3672635-644f-430d-a3b7-a8aba0566dc9" d="M2579.5,2233.64H1768c-112.35,0-209.28-91.92-209.28-209.28V1213.07c.2-112.35,91.92-209.28,209.28-209.28H2579.3c112.36,0,209.29,91.93,209.29,209.28v811.29C2788.59,2141.72,2691.66,2233.64,2579.5,2233.64ZM1768,1060.07c-86.72,0-158.22,71.49-158.22,158.21v811.29c0,86.71,71.5,158.21,158.22,158.21H2579.3c86.72,0,158.22-71.5,158.22-158.21V1218.08c0-86.72-71.5-158.21-158.22-158.21H1768Z"/><path class="ba5393b7-fef7-4cf6-80fc-a05689c868c3" d="M1962.08,1519.28c-91.93,0-168.43-76.5-168.43-168.42s76.5-173.43,168.43-173.43,168.42,76.5,168.42,173.43C2130.3,1442.58,2059,1519.28,1962.08,1519.28Zm0-301.2c-71.5,0-127.57,56.08-127.57,127.57s56.07,127.57,127.57,127.57,127.57-56.07,127.57-127.57S2033.37,1218.08,1962.08,1218.08Z"/><rect class="f3672635-644f-430d-a3b7-a8aba0566dc9" x="2507.43" y="1366.88" width="76.5" height="56.08" transform="translate(-302.16 1957.14) rotate(-39.89)"/><polygon class="f3672635-644f-430d-a3b7-a8aba0566dc9" points="2477.37 1376.29 2533.44 1330.43 2502.8 1289.58 2441.72 1335.44 2477.37 1376.29"/><path class="f3672635-644f-430d-a3b7-a8aba0566dc9" d="M2482.37,1269.15l-20.22-25.44c-10.22-10.21-25.44-15.22-40.86-5l-15.22,15.22c-10.21,10.21-15.22,25.43-5,40.85l20.42,25.44Z"/><rect class="f3672635-644f-430d-a3b7-a8aba0566dc9" x="2742.72" y="1269.15" width="382.71" height="51.07"/><rect class="f3672635-644f-430d-a3b7-a8aba0566dc9" x="2783.58" y="1713.14" width="678.71" height="51.07"/><rect class="f3672635-644f-430d-a3b7-a8aba0566dc9" x="1196.65" y="1764.21" width="382.71" height="51.07"/><rect class="f3672635-644f-430d-a3b7-a8aba0566dc9" x="916.07" y="1320.22" width="678.71" height="51.07"/><path class="f3672635-644f-430d-a3b7-a8aba0566dc9" d="M2549.26,1461.81l20.83,25c10.42,10,25.84,14.82,40.86,4.41l15-15.62c10-10.42,14.82-25.84,4.4-40.86l-20.82-25Z"/><circle class="f3672635-644f-430d-a3b7-a8aba0566dc9" cx="2328.37" cy="1896.79" r="52.67"/><circle class="f3672635-644f-430d-a3b7-a8aba0566dc9" cx="2083.44" cy="2002.13" r="52.67"/><circle class="f3672635-644f-430d-a3b7-a8aba0566dc9" cx="2050.19" cy="1791.45" r="52.67"/><circle class="f3672635-644f-430d-a3b7-a8aba0566dc9" cx="2402.87" cy="1714.75" r="52.67"/><circle class="ba5393b7-fef7-4cf6-80fc-a05689c868c3" cx="1089.51" cy="1791.05" r="96.93"/><path class="f3672635-644f-430d-a3b7-a8aba0566dc9" d="M1089.51,1912a121,121,0,1,1,121-121A121.1,121.1,0,0,1,1089.51,1912Zm0-193.86a72.9,72.9,0,1,0,72.89,72.9A73,73,0,0,0,1089.51,1718.15Z"/><circle class="f3672635-644f-430d-a3b7-a8aba0566dc9" cx="830.76" cy="1345.65" r="96.93"/><path class="f3672635-644f-430d-a3b7-a8aba0566dc9" d="M830.76,1466.61a121,121,0,1,1,121-121A121.09,121.09,0,0,1,830.76,1466.61Zm0-193.86a72.9,72.9,0,1,0,72.9,72.9A73,73,0,0,0,830.76,1272.75Z"/><circle class="ba5393b7-fef7-4cf6-80fc-a05689c868c3" cx="3219.76" cy="1294.78" r="96.93"/><path class="f3672635-644f-430d-a3b7-a8aba0566dc9" d="M3219.76,1415.74a121,121,0,1,1,121-121A121.09,121.09,0,0,1,3219.76,1415.74Zm0-193.86a72.9,72.9,0,1,0,72.9,72.9A73,73,0,0,0,3219.76,1221.88Z"/><circle class="f3672635-644f-430d-a3b7-a8aba0566dc9" cx="3540.19" cy="1738.58" r="96.93"/><path class="f3672635-644f-430d-a3b7-a8aba0566dc9" d="M3540.19,1859.54a121,121,0,1,1,121-121A121.09,121.09,0,0,1,3540.19,1859.54Zm0-193.86a72.9,72.9,0,1,0,72.9,72.9A73,73,0,0,0,3540.19,1665.68Z"/><rect class="f3672635-644f-430d-a3b7-a8aba0566dc9" x="2173.76" y="1590.58" width="71.5" height="71.5"/><rect class="f3672635-644f-430d-a3b7-a8aba0566dc9" x="1808.67" y="1887.98" width="71.5" height="71.5"/></svg>